<?xml version="1.0" encoding="utf-8" standalone="no"?>
<!DOCTYPE svg PUBLIC "-//W3C//DTD SVG 1.1//EN"
  "http://www.w3.org/Graphics/SVG/1.1/DTD/svg11.dtd">
<svg xmlns:xlink="http://www.w3.org/1999/xlink" width="706.32pt" height="296.5896pt" viewBox="0 0 706.32 296.5896" xmlns="http://www.w3.org/2000/svg" version="1.1">
 <metadata>
  <rdf:RDF xmlns:dc="http://purl.org/dc/elements/1.1/" xmlns:cc="http://creativecommons.org/ns#" xmlns:rdf="http://www.w3.org/1999/02/22-rdf-syntax-ns#">
   <cc:Work>
    <dc:type rdf:resource="http://purl.org/dc/dcmitype/StillImage"/>
    <dc:date>2026-06-16T11:40:33.816167</dc:date>
    <dc:format>image/svg+xml</dc:format>
    <dc:creator>
     <cc:Agent>
      <dc:title>Matplotlib v3.10.7, https://matplotlib.org/</dc:title>
     </cc:Agent>
    </dc:creator>
   </cc:Work>
  </rdf:RDF>
 </metadata>
 <defs>
  <style type="text/css">*{stroke-linejoin: round; stroke-linecap: butt}</style>
 </defs>
 <g id="figure_1">
  <g id="patch_1">
   <path d="M 0 296.5896 
L 706.32 296.5896 
L 706.32 0 
L 0 0 
z
" style="fill: #ffffff"/>
  </g>
  <g id="axes_1">
   <g id="patch_2">
    <path d="M 17.244 38.064487 
L 671.22 38.064487 
L 671.22 14.548687 
L 17.244 14.548687 
z
" clip-path="url(#p7ade48803d)" style="fill: #dfeef3; stroke: #2f3538; stroke-width: 1.1; stroke-linejoin: miter"/>
   </g>
   <g id="patch_3">
    <path d="M 17.244 107.14215 
L 40.68 107.14215 
L 40.68 63.050025 
L 17.244 63.050025 
z
" clip-path="url(#p7ade48803d)" style="fill: #dfeef3; stroke: #2f3538; stroke-width: 0.95; stroke-linejoin: miter"/>
   </g>
   <g id="patch_4">
    <path d="M 17.244 168.871125 
L 40.68 168.871125 
L 40.68 124.779 
L 17.244 124.779 
z
" clip-path="url(#p7ade48803d)" style="fill: #dfeef3; stroke: #2f3538; stroke-width: 0.95; stroke-linejoin: miter"/>
   </g>
   <g id="patch_5">
    <path d="M 17.244 230.6001 
L 40.68 230.6001 
L 40.68 186.507975 
L 17.244 186.507975 
z
" clip-path="url(#p7ade48803d)" style="fill: #dfeef3; stroke: #2f3538; stroke-width: 0.95; stroke-linejoin: miter"/>
   </g>
   <g id="patch_6">
    <path d="M 61.884 96.56004 
L 163.44 96.56004 
L 163.44 73.632135 
L 61.884 73.632135 
z
" clip-path="url(#p7ade48803d)" style="fill: #e88972; stroke: #2f3538; stroke-width: 1.05; stroke-linejoin: miter"/>
   </g>
   <g id="patch_7">
    <path d="M 61.884 158.289015 
L 163.44 158.289015 
L 163.44 135.36111 
L 61.884 135.36111 
z
" clip-path="url(#p7ade48803d)" style="fill: #f1b6a8; stroke: #2f3538; stroke-width: 1.05; stroke-linejoin: miter"/>
   </g>
   <g id="patch_8">
    <path d="M 61.884 220.01799 
L 163.44 220.01799 
L 163.44 197.090085 
L 61.884 197.090085 
z
" clip-path="url(#p7ade48803d)" style="fill: #f9ded8; stroke: #2f3538; stroke-width: 1.05; stroke-linejoin: miter"/>
   </g>
   <g id="patch_9">
    <path d="M 88.668 260.288797 
L 136.656 260.288797 
L 136.656 249.118792 
L 88.668 249.118792 
z
" clip-path="url(#p7ade48803d)" style="fill: #dfeef3; stroke: #2f3538; stroke-linejoin: miter"/>
   </g>
   <g id="patch_10">
    <path d="M 194.13 96.56004 
L 237.654 96.56004 
L 237.654 73.632135 
L 194.13 73.632135 
z
" clip-path="url(#p7ade48803d)" style="fill: #f4ef8a; stroke: #2f3538; stroke-width: 1.05; stroke-linejoin: miter"/>
   </g>
   <g id="patch_11">
    <path d="M 194.13 158.289015 
L 237.654 158.289015 
L 237.654 135.36111 
L 194.13 135.36111 
z
" clip-path="url(#p7ade48803d)" style="fill: #f8f5b6; stroke: #2f3538; stroke-width: 1.05; stroke-linejoin: miter"/>
   </g>
   <g id="patch_12">
    <path d="M 194.13 220.01799 
L 237.654 220.01799 
L 237.654 197.090085 
L 194.13 197.090085 
z
" clip-path="url(#p7ade48803d)" style="fill: #fcfbde; stroke: #2f3538; stroke-width: 1.05; stroke-linejoin: miter"/>
   </g>
   <g id="patch_13">
    <path d="M 194.13 250.58853 
L 237.654 250.58853 
L 237.654 237.066945 
L 194.13 237.066945 
z
" clip-path="url(#p7ade48803d)" style="fill: #eef5f7; stroke: #2f3538; stroke-width: 0.8; stroke-linejoin: miter"/>
   </g>
   <g id="patch_14">
    <path d="M 244.908 96.56004 
L 288.432 96.56004 
L 288.432 73.632135 
L 244.908 73.632135 
z
" clip-path="url(#p7ade48803d)" style="fill: #f4ef8a; stroke: #2f3538; stroke-width: 1.05; stroke-linejoin: miter"/>
   </g>
   <g id="patch_15">
    <path d="M 244.908 158.289015 
L 288.432 158.289015 
L 288.432 135.36111 
L 244.908 135.36111 
z
" clip-path="url(#p7ade48803d)" style="fill: #f8f5b6; stroke: #2f3538; stroke-width: 1.05; stroke-linejoin: miter"/>
   </g>
   <g id="patch_16">
    <path d="M 244.908 220.01799 
L 288.432 220.01799 
L 288.432 197.090085 
L 244.908 197.090085 
z
" clip-path="url(#p7ade48803d)" style="fill: #fcfbde; stroke: #2f3538; stroke-width: 1.05; stroke-linejoin: miter"/>
   </g>
   <g id="patch_17">
    <path d="M 244.908 250.58853 
L 288.432 250.58853 
L 288.432 237.066945 
L 244.908 237.066945 
z
" clip-path="url(#p7ade48803d)" style="fill: #eef5f7; stroke: #2f3538; stroke-width: 0.8; stroke-linejoin: miter"/>
   </g>
   <g id="patch_18">
    <path d="M 295.686 96.56004 
L 339.21 96.56004 
L 339.21 73.632135 
L 295.686 73.632135 
z
" clip-path="url(#p7ade48803d)" style="fill: #f4ef8a; stroke: #2f3538; stroke-width: 1.05; stroke-linejoin: miter"/>
   </g>
   <g id="patch_19">
    <path d="M 295.686 158.289015 
L 339.21 158.289015 
L 339.21 135.36111 
L 295.686 135.36111 
z
" clip-path="url(#p7ade48803d)" style="fill: #f8f5b6; stroke: #2f3538; stroke-width: 1.05; stroke-linejoin: miter"/>
   </g>
   <g id="patch_20">
    <path d="M 295.686 220.01799 
L 339.21 220.01799 
L 339.21 197.090085 
L 295.686 197.090085 
z
" clip-path="url(#p7ade48803d)" style="fill: #fcfbde; stroke: #2f3538; stroke-width: 1.05; stroke-linejoin: miter"/>
   </g>
   <g id="patch_21">
    <path d="M 295.686 250.58853 
L 339.21 250.58853 
L 339.21 237.066945 
L 295.686 237.066945 
z
" clip-path="url(#p7ade48803d)" style="fill: #eef5f7; stroke: #2f3538; stroke-width: 0.8; stroke-linejoin: miter"/>
   </g>
   <g id="patch_22">
    <path d="M 346.464 96.56004 
L 389.988 96.56004 
L 389.988 73.632135 
L 346.464 73.632135 
z
" clip-path="url(#p7ade48803d)" style="fill: #f4ef8a; stroke: #2f3538; stroke-width: 1.05; stroke-linejoin: miter"/>
   </g>
   <g id="patch_23">
    <path d="M 346.464 158.289015 
L 389.988 158.289015 
L 389.988 135.36111 
L 346.464 135.36111 
z
" clip-path="url(#p7ade48803d)" style="fill: #f8f5b6; stroke: #2f3538; stroke-width: 1.05; stroke-linejoin: miter"/>
   </g>
   <g id="patch_24">
    <path d="M 346.464 220.01799 
L 389.988 220.01799 
L 389.988 197.090085 
L 346.464 197.090085 
z
" clip-path="url(#p7ade48803d)" style="fill: #fcfbde; stroke: #2f3538; stroke-width: 1.05; stroke-linejoin: miter"/>
   </g>
   <g id="patch_25">
    <path d="M 346.464 250.58853 
L 389.988 250.58853 
L 389.988 237.066945 
L 346.464 237.066945 
z
" clip-path="url(#p7ade48803d)" style="fill: #eef5f7; stroke: #2f3538; stroke-width: 0.8; stroke-linejoin: miter"/>
   </g>
   <g id="patch_26">
    <path d="M 194.13 266.167747 
L 389.988 266.167747 
L 389.988 254.997742 
L 194.13 254.997742 
z
" clip-path="url(#p7ade48803d)" style="fill: #dfeef3; stroke: #2f3538; stroke-linejoin: miter"/>
   </g>
   <g id="patch_27">
    <path d="M 420.678 96.56004 
L 522.234 96.56004 
L 522.234 73.632135 
L 420.678 73.632135 
z
" clip-path="url(#p7ade48803d)" style="fill: #a7d29b; stroke: #2f3538; stroke-width: 1.05; stroke-linejoin: miter"/>
   </g>
   <g id="patch_28">
    <path d="M 420.678 158.289015 
L 522.234 158.289015 
L 522.234 135.36111 
L 420.678 135.36111 
z
" clip-path="url(#p7ade48803d)" style="fill: #c8e3c1; stroke: #2f3538; stroke-width: 1.05; stroke-linejoin: miter"/>
   </g>
   <g id="patch_29">
    <path d="M 420.678 220.01799 
L 522.234 220.01799 
L 522.234 197.090085 
L 420.678 197.090085 
z
" clip-path="url(#p7ade48803d)" style="fill: #e6f2e3; stroke: #2f3538; stroke-width: 1.05; stroke-linejoin: miter"/>
   </g>
   <g id="patch_30">
    <path d="M 447.462 260.288797 
L 495.45 260.288797 
L 495.45 249.118792 
L 447.462 249.118792 
z
" clip-path="url(#p7ade48803d)" style="fill: #dfeef3; stroke: #2f3538; stroke-linejoin: miter"/>
   </g>
   <g id="patch_31">
    <path d="M 552.924 96.56004 
L 654.48 96.56004 
L 654.48 73.632135 
L 552.924 73.632135 
z
" clip-path="url(#p7ade48803d)" style="fill: #ee93bf; stroke: #2f3538; stroke-width: 1.05; stroke-linejoin: miter"/>
   </g>
   <g id="patch_32">
    <path d="M 552.924 158.289015 
L 654.48 158.289015 
L 654.48 135.36111 
L 552.924 135.36111 
z
" clip-path="url(#p7ade48803d)" style="fill: #f4bcd7; stroke: #2f3538; stroke-width: 1.05; stroke-linejoin: miter"/>
   </g>
   <g id="patch_33">
    <path d="M 552.924 220.01799 
L 654.48 220.01799 
L 654.48 197.090085 
L 552.924 197.090085 
z
" clip-path="url(#p7ade48803d)" style="fill: #fae1ed; stroke: #2f3538; stroke-width: 1.05; stroke-linejoin: miter"/>
   </g>
   <g id="patch_34">
    <path d="M 579.708 260.288797 
L 627.696 260.288797 
L 627.696 249.118792 
L 579.708 249.118792 
z
" clip-path="url(#p7ade48803d)" style="fill: #dfeef3; stroke: #2f3538; stroke-linejoin: miter"/>
   </g>
   <g id="line2d_1">
    <path d="M 215.892 53.643705 
L 368.226 53.643705 
" clip-path="url(#p7ade48803d)" style="fill: none; stroke: #000000; stroke-width: 1.15; stroke-linecap: square"/>
   </g>
   <g id="text_1">
    <!-- Available participants ($n$ = 231) -->
    <g style="fill: #1c2529" transform="translate(270.582 28.856587) scale(0.1 -0.1)">
     <defs>
      <path id="Arial-BoldMT-41" d="M 4597 0 
L 3591 0 
L 3191 1041 
L 1359 1041 
L 981 0 
L 0 0 
L 1784 4581 
L 2763 4581 
L 4597 0 
z
M 2894 1813 
L 2263 3513 
L 1644 1813 
L 2894 1813 
z
" transform="scale(0.015625)"/>
      <path id="Arial-BoldMT-76" d="M 1372 0 
L 34 3319 
L 956 3319 
L 1581 1625 
L 1763 1059 
Q 1834 1275 1853 1344 
Q 1897 1484 1947 1625 
L 2578 3319 
L 3481 3319 
L 2163 0 
L 1372 0 
z
" transform="scale(0.015625)"/>
      <path id="Arial-BoldMT-61" d="M 1116 2306 
L 319 2450 
Q 453 2931 781 3162 
Q 1109 3394 1756 3394 
Q 2344 3394 2631 3255 
Q 2919 3116 3036 2902 
Q 3153 2688 3153 2116 
L 3144 1091 
Q 3144 653 3186 445 
Q 3228 238 3344 0 
L 2475 0 
Q 2441 88 2391 259 
Q 2369 338 2359 363 
Q 2134 144 1878 34 
Q 1622 -75 1331 -75 
Q 819 -75 523 203 
Q 228 481 228 906 
Q 228 1188 362 1408 
Q 497 1628 739 1745 
Q 981 1863 1438 1950 
Q 2053 2066 2291 2166 
L 2291 2253 
Q 2291 2506 2166 2614 
Q 2041 2722 1694 2722 
Q 1459 2722 1328 2630 
Q 1197 2538 1116 2306 
z
M 2291 1594 
Q 2122 1538 1756 1459 
Q 1391 1381 1278 1306 
Q 1106 1184 1106 997 
Q 1106 813 1243 678 
Q 1381 544 1594 544 
Q 1831 544 2047 700 
Q 2206 819 2256 991 
Q 2291 1103 2291 1419 
L 2291 1594 
z
" transform="scale(0.015625)"/>
      <path id="Arial-BoldMT-69" d="M 459 3769 
L 459 4581 
L 1338 4581 
L 1338 3769 
L 459 3769 
z
M 459 0 
L 459 3319 
L 1338 3319 
L 1338 0 
L 459 0 
z
" transform="scale(0.015625)"/>
      <path id="Arial-BoldMT-6c" d="M 459 0 
L 459 4581 
L 1338 4581 
L 1338 0 
L 459 0 
z
" transform="scale(0.015625)"/>
      <path id="Arial-BoldMT-62" d="M 422 0 
L 422 4581 
L 1300 4581 
L 1300 2931 
Q 1706 3394 2263 3394 
Q 2869 3394 3266 2955 
Q 3663 2516 3663 1694 
Q 3663 844 3258 384 
Q 2853 -75 2275 -75 
Q 1991 -75 1714 67 
Q 1438 209 1238 488 
L 1238 0 
L 422 0 
z
M 1294 1731 
Q 1294 1216 1456 969 
Q 1684 619 2063 619 
Q 2353 619 2558 867 
Q 2763 1116 2763 1650 
Q 2763 2219 2556 2470 
Q 2350 2722 2028 2722 
Q 1713 2722 1503 2476 
Q 1294 2231 1294 1731 
z
" transform="scale(0.015625)"/>
      <path id="Arial-BoldMT-65" d="M 2381 1056 
L 3256 909 
Q 3088 428 2723 176 
Q 2359 -75 1813 -75 
Q 947 -75 531 491 
Q 203 944 203 1634 
Q 203 2459 634 2926 
Q 1066 3394 1725 3394 
Q 2466 3394 2894 2905 
Q 3322 2416 3303 1406 
L 1103 1406 
Q 1113 1016 1316 798 
Q 1519 581 1822 581 
Q 2028 581 2168 693 
Q 2309 806 2381 1056 
z
M 2431 1944 
Q 2422 2325 2234 2523 
Q 2047 2722 1778 2722 
Q 1491 2722 1303 2513 
Q 1116 2303 1119 1944 
L 2431 1944 
z
" transform="scale(0.015625)"/>
      <path id="Arial-BoldMT-20" transform="scale(0.015625)"/>
      <path id="Arial-BoldMT-70" d="M 434 3319 
L 1253 3319 
L 1253 2831 
Q 1413 3081 1684 3237 
Q 1956 3394 2288 3394 
Q 2866 3394 3269 2941 
Q 3672 2488 3672 1678 
Q 3672 847 3265 386 
Q 2859 -75 2281 -75 
Q 2006 -75 1782 34 
Q 1559 144 1313 409 
L 1313 -1263 
L 434 -1263 
L 434 3319 
z
M 1303 1716 
Q 1303 1156 1525 889 
Q 1747 622 2066 622 
Q 2372 622 2575 867 
Q 2778 1113 2778 1672 
Q 2778 2194 2568 2447 
Q 2359 2700 2050 2700 
Q 1728 2700 1515 2451 
Q 1303 2203 1303 1716 
z
" transform="scale(0.015625)"/>
      <path id="Arial-BoldMT-72" d="M 1300 0 
L 422 0 
L 422 3319 
L 1238 3319 
L 1238 2847 
Q 1447 3181 1614 3287 
Q 1781 3394 1994 3394 
Q 2294 3394 2572 3228 
L 2300 2463 
Q 2078 2606 1888 2606 
Q 1703 2606 1575 2504 
Q 1447 2403 1373 2137 
Q 1300 1872 1300 1025 
L 1300 0 
z
" transform="scale(0.015625)"/>
      <path id="Arial-BoldMT-74" d="M 1981 3319 
L 1981 2619 
L 1381 2619 
L 1381 1281 
Q 1381 875 1398 808 
Q 1416 741 1477 697 
Q 1538 653 1625 653 
Q 1747 653 1978 738 
L 2053 56 
Q 1747 -75 1359 -75 
Q 1122 -75 931 4 
Q 741 84 652 211 
Q 563 338 528 553 
Q 500 706 500 1172 
L 500 2619 
L 97 2619 
L 97 3319 
L 500 3319 
L 500 3978 
L 1381 4491 
L 1381 3319 
L 1981 3319 
z
" transform="scale(0.015625)"/>
      <path id="Arial-BoldMT-63" d="M 3353 2338 
L 2488 2181 
Q 2444 2441 2289 2572 
Q 2134 2703 1888 2703 
Q 1559 2703 1364 2476 
Q 1169 2250 1169 1719 
Q 1169 1128 1367 884 
Q 1566 641 1900 641 
Q 2150 641 2309 783 
Q 2469 925 2534 1272 
L 3397 1125 
Q 3263 531 2881 228 
Q 2500 -75 1859 -75 
Q 1131 -75 698 384 
Q 266 844 266 1656 
Q 266 2478 700 2936 
Q 1134 3394 1875 3394 
Q 2481 3394 2839 3133 
Q 3197 2872 3353 2338 
z
" transform="scale(0.015625)"/>
      <path id="Arial-BoldMT-6e" d="M 3478 0 
L 2600 0 
L 2600 1694 
Q 2600 2231 2544 2389 
Q 2488 2547 2361 2634 
Q 2234 2722 2056 2722 
Q 1828 2722 1647 2597 
Q 1466 2472 1398 2265 
Q 1331 2059 1331 1503 
L 1331 0 
L 453 0 
L 453 3319 
L 1269 3319 
L 1269 2831 
Q 1703 3394 2363 3394 
Q 2653 3394 2893 3289 
Q 3134 3184 3257 3021 
Q 3381 2859 3429 2653 
Q 3478 2447 3478 2063 
L 3478 0 
z
" transform="scale(0.015625)"/>
      <path id="Arial-BoldMT-73" d="M 150 947 
L 1031 1081 
Q 1088 825 1259 692 
Q 1431 559 1741 559 
Q 2081 559 2253 684 
Q 2369 772 2369 919 
Q 2369 1019 2306 1084 
Q 2241 1147 2013 1200 
Q 950 1434 666 1628 
Q 272 1897 272 2375 
Q 272 2806 612 3100 
Q 953 3394 1669 3394 
Q 2350 3394 2681 3172 
Q 3013 2950 3138 2516 
L 2309 2363 
Q 2256 2556 2107 2659 
Q 1959 2763 1684 2763 
Q 1338 2763 1188 2666 
Q 1088 2597 1088 2488 
Q 1088 2394 1175 2328 
Q 1294 2241 1995 2081 
Q 2697 1922 2975 1691 
Q 3250 1456 3250 1038 
Q 3250 581 2869 253 
Q 2488 -75 1741 -75 
Q 1063 -75 667 200 
Q 272 475 150 947 
z
" transform="scale(0.015625)"/>
      <path id="Arial-BoldMT-28" d="M 1916 -1347 
L 1313 -1347 
Q 834 -625 584 153 
Q 334 931 334 1659 
Q 334 2563 644 3369 
Q 913 4069 1325 4659 
L 1925 4659 
Q 1497 3713 1336 3048 
Q 1175 2384 1175 1641 
Q 1175 1128 1270 590 
Q 1366 53 1531 -431 
Q 1641 -750 1916 -1347 
z
" transform="scale(0.015625)"/>
      <path id="DejaVuSans-Oblique-6e" d="M 3566 2113 
L 3156 0 
L 2578 0 
L 2988 2091 
Q 3016 2238 3031 2350 
Q 3047 2463 3047 2528 
Q 3047 2791 2881 2937 
Q 2716 3084 2419 3084 
Q 1956 3084 1622 2776 
Q 1288 2469 1184 1941 
L 800 0 
L 225 0 
L 903 3500 
L 1478 3500 
L 1363 2950 
Q 1603 3253 1940 3418 
Q 2278 3584 2650 3584 
Q 3113 3584 3367 3334 
Q 3622 3084 3622 2631 
Q 3622 2519 3608 2391 
Q 3594 2263 3566 2113 
z
" transform="scale(0.015625)"/>
      <path id="Arial-BoldMT-3d" d="M 266 2550 
L 266 3356 
L 3469 3356 
L 3469 2550 
L 266 2550 
z
M 266 1163 
L 266 1972 
L 3469 1972 
L 3469 1163 
L 266 1163 
z
" transform="scale(0.015625)"/>
      <path id="Arial-BoldMT-32" d="M 3238 816 
L 3238 0 
L 159 0 
Q 209 463 459 877 
Q 709 1291 1447 1975 
Q 2041 2528 2175 2725 
Q 2356 2997 2356 3263 
Q 2356 3556 2198 3714 
Q 2041 3872 1763 3872 
Q 1488 3872 1325 3706 
Q 1163 3541 1138 3156 
L 263 3244 
Q 341 3969 753 4284 
Q 1166 4600 1784 4600 
Q 2463 4600 2850 4234 
Q 3238 3869 3238 3325 
Q 3238 3016 3127 2736 
Q 3016 2456 2775 2150 
Q 2616 1947 2200 1565 
Q 1784 1184 1673 1059 
Q 1563 934 1494 816 
L 3238 816 
z
" transform="scale(0.015625)"/>
      <path id="Arial-BoldMT-33" d="M 241 1216 
L 1091 1319 
Q 1131 994 1309 822 
Q 1488 650 1741 650 
Q 2013 650 2198 856 
Q 2384 1063 2384 1413 
Q 2384 1744 2206 1937 
Q 2028 2131 1772 2131 
Q 1603 2131 1369 2066 
L 1466 2781 
Q 1822 2772 2009 2936 
Q 2197 3100 2197 3372 
Q 2197 3603 2059 3740 
Q 1922 3878 1694 3878 
Q 1469 3878 1309 3722 
Q 1150 3566 1116 3266 
L 306 3403 
Q 391 3819 561 4067 
Q 731 4316 1036 4458 
Q 1341 4600 1719 4600 
Q 2366 4600 2756 4188 
Q 3078 3850 3078 3425 
Q 3078 2822 2419 2463 
Q 2813 2378 3048 2084 
Q 3284 1791 3284 1375 
Q 3284 772 2843 347 
Q 2403 -78 1747 -78 
Q 1125 -78 715 280 
Q 306 638 241 1216 
z
" transform="scale(0.015625)"/>
      <path id="Arial-BoldMT-31" d="M 2519 0 
L 1641 0 
L 1641 3309 
Q 1159 2859 506 2644 
L 506 3441 
Q 850 3553 1253 3867 
Q 1656 4181 1806 4600 
L 2519 4600 
L 2519 0 
z
" transform="scale(0.015625)"/>
      <path id="Arial-BoldMT-29" d="M 216 -1347 
Q 475 -791 581 -494 
Q 688 -197 778 190 
Q 869 578 912 926 
Q 956 1275 956 1641 
Q 956 2384 797 3048 
Q 638 3713 209 4659 
L 806 4659 
Q 1278 3988 1539 3234 
Q 1800 2481 1800 1706 
Q 1800 1053 1594 306 
Q 1359 -531 822 -1347 
L 216 -1347 
z
" transform="scale(0.015625)"/>
     </defs>
     <use xlink:href="#Arial-BoldMT-41" transform="translate(0 0.203125)"/>
     <use xlink:href="#Arial-BoldMT-76" transform="translate(72.216797 0.203125)"/>
     <use xlink:href="#Arial-BoldMT-61" transform="translate(127.832031 0.203125)"/>
     <use xlink:href="#Arial-BoldMT-69" transform="translate(183.447266 0.203125)"/>
     <use xlink:href="#Arial-BoldMT-6c" transform="translate(211.230469 0.203125)"/>
     <use xlink:href="#Arial-BoldMT-61" transform="translate(239.013672 0.203125)"/>
     <use xlink:href="#Arial-BoldMT-62" transform="translate(294.628906 0.203125)"/>
     <use xlink:href="#Arial-BoldMT-6c" transform="translate(355.712891 0.203125)"/>
     <use xlink:href="#Arial-BoldMT-65" transform="translate(383.496094 0.203125)"/>
     <use xlink:href="#Arial-BoldMT-20" transform="translate(439.111328 0.203125)"/>
     <use xlink:href="#Arial-BoldMT-70" transform="translate(466.894531 0.203125)"/>
     <use xlink:href="#Arial-BoldMT-61" transform="translate(527.978516 0.203125)"/>
     <use xlink:href="#Arial-BoldMT-72" transform="translate(583.59375 0.203125)"/>
     <use xlink:href="#Arial-BoldMT-74" transform="translate(622.509766 0.203125)"/>
     <use xlink:href="#Arial-BoldMT-69" transform="translate(655.810547 0.203125)"/>
     <use xlink:href="#Arial-BoldMT-63" transform="translate(683.59375 0.203125)"/>
     <use xlink:href="#Arial-BoldMT-69" transform="translate(739.208984 0.203125)"/>
     <use xlink:href="#Arial-BoldMT-70" transform="translate(766.992188 0.203125)"/>
     <use xlink:href="#Arial-BoldMT-61" transform="translate(828.076172 0.203125)"/>
     <use xlink:href="#Arial-BoldMT-6e" transform="translate(883.691406 0.203125)"/>
     <use xlink:href="#Arial-BoldMT-74" transform="translate(944.775391 0.203125)"/>
     <use xlink:href="#Arial-BoldMT-73" transform="translate(978.076172 0.203125)"/>
     <use xlink:href="#Arial-BoldMT-20" transform="translate(1033.691406 0.203125)"/>
     <use xlink:href="#Arial-BoldMT-28" transform="translate(1061.474609 0.203125)"/>
     <use xlink:href="#DejaVuSans-Oblique-6e" transform="translate(1094.775391 0.203125)"/>
     <use xlink:href="#Arial-BoldMT-20" transform="translate(1158.154297 0.203125)"/>
     <use xlink:href="#Arial-BoldMT-3d" transform="translate(1185.9375 0.203125)"/>
     <use xlink:href="#Arial-BoldMT-20" transform="translate(1244.335938 0.203125)"/>
     <use xlink:href="#Arial-BoldMT-32" transform="translate(1272.119141 0.203125)"/>
     <use xlink:href="#Arial-BoldMT-33" transform="translate(1327.734375 0.203125)"/>
     <use xlink:href="#Arial-BoldMT-31" transform="translate(1383.349609 0.203125)"/>
     <use xlink:href="#Arial-BoldMT-29" transform="translate(1438.964844 0.203125)"/>
    </g>
   </g>
   <g id="text_2">
    <!-- RAW DATA -->
    <g style="fill: #1c2529" transform="translate(30.621 101.867087) rotate(-90) scale(0.064 -0.064)">
     <defs>
      <path id="Arial-BoldMT-52" d="M 469 0 
L 469 4581 
L 2416 4581 
Q 3150 4581 3483 4457 
Q 3816 4334 4016 4018 
Q 4216 3703 4216 3297 
Q 4216 2781 3912 2445 
Q 3609 2109 3006 2022 
Q 3306 1847 3501 1637 
Q 3697 1428 4028 894 
L 4588 0 
L 3481 0 
L 2813 997 
Q 2456 1531 2325 1670 
Q 2194 1809 2047 1861 
Q 1900 1913 1581 1913 
L 1394 1913 
L 1394 0 
L 469 0 
z
M 1394 2644 
L 2078 2644 
Q 2744 2644 2909 2700 
Q 3075 2756 3169 2893 
Q 3263 3031 3263 3238 
Q 3263 3469 3139 3611 
Q 3016 3753 2791 3791 
Q 2678 3806 2116 3806 
L 1394 3806 
L 1394 2644 
z
" transform="scale(0.015625)"/>
      <path id="Arial-BoldMT-57" d="M 1116 0 
L 22 4581 
L 969 4581 
L 1659 1434 
L 2497 4581 
L 3597 4581 
L 4400 1381 
L 5103 4581 
L 6034 4581 
L 4922 0 
L 3941 0 
L 3028 3425 
L 2119 0 
L 1116 0 
z
" transform="scale(0.015625)"/>
      <path id="Arial-BoldMT-44" d="M 463 4581 
L 2153 4581 
Q 2725 4581 3025 4494 
Q 3428 4375 3715 4072 
Q 4003 3769 4153 3330 
Q 4303 2891 4303 2247 
Q 4303 1681 4163 1272 
Q 3991 772 3672 463 
Q 3431 228 3022 97 
Q 2716 0 2203 0 
L 463 0 
L 463 4581 
z
M 1388 3806 
L 1388 772 
L 2078 772 
Q 2466 772 2638 816 
Q 2863 872 3011 1006 
Q 3159 1141 3253 1448 
Q 3347 1756 3347 2288 
Q 3347 2819 3253 3103 
Q 3159 3388 2990 3547 
Q 2822 3706 2563 3763 
Q 2369 3806 1803 3806 
L 1388 3806 
z
" transform="scale(0.015625)"/>
      <path id="Arial-BoldMT-54" d="M 1497 0 
L 1497 3806 
L 138 3806 
L 138 4581 
L 3778 4581 
L 3778 3806 
L 2422 3806 
L 2422 0 
L 1497 0 
z
" transform="scale(0.015625)"/>
     </defs>
     <use xlink:href="#Arial-BoldMT-52"/>
     <use xlink:href="#Arial-BoldMT-41" transform="translate(72.216797 0)"/>
     <use xlink:href="#Arial-BoldMT-57" transform="translate(138.933594 0)"/>
     <use xlink:href="#Arial-BoldMT-20" transform="translate(233.318359 0)"/>
     <use xlink:href="#Arial-BoldMT-44" transform="translate(261.101562 0)"/>
     <use xlink:href="#Arial-BoldMT-41" transform="translate(333.318359 0)"/>
     <use xlink:href="#Arial-BoldMT-54" transform="translate(398.160156 0)"/>
     <use xlink:href="#Arial-BoldMT-41" transform="translate(451.869141 0)"/>
    </g>
   </g>
   <g id="text_3">
    <!-- PROCESSED -->
    <g style="fill: #1c2529" transform="translate(30.621 166.919562) rotate(-90) scale(0.064 -0.064)">
     <defs>
      <path id="Arial-BoldMT-50" d="M 466 0 
L 466 4581 
L 1950 4581 
Q 2794 4581 3050 4513 
Q 3444 4409 3709 4064 
Q 3975 3719 3975 3172 
Q 3975 2750 3822 2462 
Q 3669 2175 3433 2011 
Q 3197 1847 2953 1794 
Q 2622 1728 1994 1728 
L 1391 1728 
L 1391 0 
L 466 0 
z
M 1391 3806 
L 1391 2506 
L 1897 2506 
Q 2444 2506 2628 2578 
Q 2813 2650 2917 2803 
Q 3022 2956 3022 3159 
Q 3022 3409 2875 3571 
Q 2728 3734 2503 3775 
Q 2338 3806 1838 3806 
L 1391 3806 
z
" transform="scale(0.015625)"/>
      <path id="Arial-BoldMT-4f" d="M 278 2263 
Q 278 2963 488 3438 
Q 644 3788 914 4066 
Q 1184 4344 1506 4478 
Q 1934 4659 2494 4659 
Q 3506 4659 4114 4031 
Q 4722 3403 4722 2284 
Q 4722 1175 4119 548 
Q 3516 -78 2506 -78 
Q 1484 -78 881 545 
Q 278 1169 278 2263 
z
M 1231 2294 
Q 1231 1516 1590 1114 
Q 1950 713 2503 713 
Q 3056 713 3411 1111 
Q 3766 1509 3766 2306 
Q 3766 3094 3420 3481 
Q 3075 3869 2503 3869 
Q 1931 3869 1581 3476 
Q 1231 3084 1231 2294 
z
" transform="scale(0.015625)"/>
      <path id="Arial-BoldMT-43" d="M 3397 1684 
L 4294 1400 
Q 4088 650 3608 286 
Q 3128 -78 2391 -78 
Q 1478 -78 890 545 
Q 303 1169 303 2250 
Q 303 3394 893 4026 
Q 1484 4659 2447 4659 
Q 3288 4659 3813 4163 
Q 4125 3869 4281 3319 
L 3366 3100 
Q 3284 3456 3026 3662 
Q 2769 3869 2400 3869 
Q 1891 3869 1573 3503 
Q 1256 3138 1256 2319 
Q 1256 1450 1568 1081 
Q 1881 713 2381 713 
Q 2750 713 3015 947 
Q 3281 1181 3397 1684 
z
" transform="scale(0.015625)"/>
      <path id="Arial-BoldMT-45" d="M 466 0 
L 466 4581 
L 3863 4581 
L 3863 3806 
L 1391 3806 
L 1391 2791 
L 3691 2791 
L 3691 2019 
L 1391 2019 
L 1391 772 
L 3950 772 
L 3950 0 
L 466 0 
z
" transform="scale(0.015625)"/>
      <path id="Arial-BoldMT-53" d="M 231 1491 
L 1131 1578 
Q 1213 1125 1461 912 
Q 1709 700 2131 700 
Q 2578 700 2804 889 
Q 3031 1078 3031 1331 
Q 3031 1494 2936 1608 
Q 2841 1722 2603 1806 
Q 2441 1863 1863 2006 
Q 1119 2191 819 2459 
Q 397 2838 397 3381 
Q 397 3731 595 4036 
Q 794 4341 1167 4500 
Q 1541 4659 2069 4659 
Q 2931 4659 3367 4281 
Q 3803 3903 3825 3272 
L 2900 3231 
Q 2841 3584 2645 3739 
Q 2450 3894 2059 3894 
Q 1656 3894 1428 3728 
Q 1281 3622 1281 3444 
Q 1281 3281 1419 3166 
Q 1594 3019 2269 2859 
Q 2944 2700 3267 2529 
Q 3591 2359 3773 2064 
Q 3956 1769 3956 1334 
Q 3956 941 3737 597 
Q 3519 253 3119 86 
Q 2719 -81 2122 -81 
Q 1253 -81 787 320 
Q 322 722 231 1491 
z
" transform="scale(0.015625)"/>
     </defs>
     <use xlink:href="#Arial-BoldMT-50"/>
     <use xlink:href="#Arial-BoldMT-52" transform="translate(66.699219 0)"/>
     <use xlink:href="#Arial-BoldMT-4f" transform="translate(138.916016 0)"/>
     <use xlink:href="#Arial-BoldMT-43" transform="translate(216.699219 0)"/>
     <use xlink:href="#Arial-BoldMT-45" transform="translate(288.916016 0)"/>
     <use xlink:href="#Arial-BoldMT-53" transform="translate(355.615234 0)"/>
     <use xlink:href="#Arial-BoldMT-53" transform="translate(422.314453 0)"/>
     <use xlink:href="#Arial-BoldMT-45" transform="translate(489.013672 0)"/>
     <use xlink:href="#Arial-BoldMT-44" transform="translate(555.712891 0)"/>
    </g>
   </g>
   <g id="text_4">
    <!-- PASSING QC -->
    <g style="fill: #1c2529" transform="translate(30.621 228.410537) rotate(-90) scale(0.064 -0.064)">
     <defs>
      <path id="Arial-BoldMT-49" d="M 438 0 
L 438 4581 
L 1363 4581 
L 1363 0 
L 438 0 
z
" transform="scale(0.015625)"/>
      <path id="Arial-BoldMT-4e" d="M 475 0 
L 475 4581 
L 1375 4581 
L 3250 1522 
L 3250 4581 
L 4109 4581 
L 4109 0 
L 3181 0 
L 1334 2988 
L 1334 0 
L 475 0 
z
" transform="scale(0.015625)"/>
      <path id="Arial-BoldMT-47" d="M 2597 1684 
L 2597 2456 
L 4591 2456 
L 4591 631 
Q 4300 350 3748 136 
Q 3197 -78 2631 -78 
Q 1913 -78 1378 223 
Q 844 525 575 1086 
Q 306 1647 306 2306 
Q 306 3022 606 3578 
Q 906 4134 1484 4431 
Q 1925 4659 2581 4659 
Q 3434 4659 3914 4301 
Q 4394 3944 4531 3313 
L 3613 3141 
Q 3516 3478 3248 3673 
Q 2981 3869 2581 3869 
Q 1975 3869 1617 3484 
Q 1259 3100 1259 2344 
Q 1259 1528 1621 1120 
Q 1984 713 2572 713 
Q 2863 713 3155 827 
Q 3447 941 3656 1103 
L 3656 1684 
L 2597 1684 
z
" transform="scale(0.015625)"/>
      <path id="Arial-BoldMT-51" d="M 4153 581 
Q 4494 338 4894 194 
L 4553 -459 
Q 4344 -397 4144 -288 
Q 4100 -266 3528 119 
Q 3078 -78 2531 -78 
Q 1475 -78 876 544 
Q 278 1166 278 2291 
Q 278 3413 878 4036 
Q 1478 4659 2506 4659 
Q 3525 4659 4122 4036 
Q 4719 3413 4719 2291 
Q 4719 1697 4553 1247 
Q 4428 903 4153 581 
z
M 3409 1103 
Q 3588 1313 3677 1609 
Q 3766 1906 3766 2291 
Q 3766 3084 3416 3476 
Q 3066 3869 2500 3869 
Q 1934 3869 1582 3475 
Q 1231 3081 1231 2291 
Q 1231 1488 1582 1089 
Q 1934 691 2472 691 
Q 2672 691 2850 756 
Q 2569 941 2278 1044 
L 2538 1572 
Q 2994 1416 3409 1103 
z
" transform="scale(0.015625)"/>
     </defs>
     <use xlink:href="#Arial-BoldMT-50"/>
     <use xlink:href="#Arial-BoldMT-41" transform="translate(59.324219 0)"/>
     <use xlink:href="#Arial-BoldMT-53" transform="translate(131.541016 0)"/>
     <use xlink:href="#Arial-BoldMT-53" transform="translate(198.240234 0)"/>
     <use xlink:href="#Arial-BoldMT-49" transform="translate(264.939453 0)"/>
     <use xlink:href="#Arial-BoldMT-4e" transform="translate(292.722656 0)"/>
     <use xlink:href="#Arial-BoldMT-47" transform="translate(364.939453 0)"/>
     <use xlink:href="#Arial-BoldMT-20" transform="translate(442.722656 0)"/>
     <use xlink:href="#Arial-BoldMT-51" transform="translate(470.505859 0)"/>
     <use xlink:href="#Arial-BoldMT-43" transform="translate(548.289062 0)"/>
    </g>
   </g>
   <g id="text_5">
    <!-- $n_{participants}$ = 230 -->
    <g style="fill: #1c2529" transform="translate(81.72 86.756587) scale(0.081 -0.081)">
     <defs>
      <path id="DejaVuSans-Oblique-70" d="M 3175 2156 
Q 3175 2616 2975 2859 
Q 2775 3103 2400 3103 
Q 2144 3103 1911 2972 
Q 1678 2841 1497 2591 
Q 1319 2344 1212 1994 
Q 1106 1644 1106 1300 
Q 1106 863 1306 627 
Q 1506 391 1875 391 
Q 2147 391 2380 519 
Q 2613 647 2778 891 
Q 2956 1147 3065 1494 
Q 3175 1841 3175 2156 
z
M 1394 2969 
Q 1625 3272 1939 3428 
Q 2253 3584 2638 3584 
Q 3175 3584 3472 3232 
Q 3769 2881 3769 2247 
Q 3769 1728 3584 1258 
Q 3400 788 3053 416 
Q 2822 169 2531 39 
Q 2241 -91 1919 -91 
Q 1547 -91 1294 64 
Q 1041 219 916 525 
L 556 -1331 
L -19 -1331 
L 922 3500 
L 1497 3500 
L 1394 2969 
z
" transform="scale(0.015625)"/>
      <path id="DejaVuSans-Oblique-61" d="M 3438 1997 
L 3047 0 
L 2472 0 
L 2578 531 
Q 2325 219 2001 64 
Q 1678 -91 1281 -91 
Q 834 -91 548 182 
Q 263 456 263 884 
Q 263 1497 752 1853 
Q 1241 2209 2100 2209 
L 2900 2209 
L 2931 2363 
Q 2938 2388 2941 2417 
Q 2944 2447 2944 2509 
Q 2944 2788 2717 2942 
Q 2491 3097 2081 3097 
Q 1800 3097 1504 3025 
Q 1209 2953 897 2809 
L 997 3341 
Q 1322 3463 1633 3523 
Q 1944 3584 2234 3584 
Q 2853 3584 3176 3315 
Q 3500 3047 3500 2534 
Q 3500 2431 3484 2292 
Q 3469 2153 3438 1997 
z
M 2816 1759 
L 2241 1759 
Q 1534 1759 1195 1570 
Q 856 1381 856 984 
Q 856 709 1029 553 
Q 1203 397 1509 397 
Q 1978 397 2328 733 
Q 2678 1069 2791 1631 
L 2816 1759 
z
" transform="scale(0.015625)"/>
      <path id="DejaVuSans-Oblique-72" d="M 2853 2969 
Q 2766 3016 2653 3041 
Q 2541 3066 2413 3066 
Q 1953 3066 1609 2717 
Q 1266 2369 1153 1784 
L 800 0 
L 225 0 
L 909 3500 
L 1484 3500 
L 1375 2956 
Q 1603 3259 1920 3421 
Q 2238 3584 2597 3584 
Q 2691 3584 2781 3573 
Q 2872 3563 2963 3538 
L 2853 2969 
z
" transform="scale(0.015625)"/>
      <path id="DejaVuSans-Oblique-74" d="M 2706 3500 
L 2619 3053 
L 1472 3053 
L 1100 1153 
Q 1081 1047 1072 975 
Q 1063 903 1063 863 
Q 1063 663 1183 572 
Q 1303 481 1569 481 
L 2150 481 
L 2053 0 
L 1503 0 
Q 991 0 739 200 
Q 488 400 488 806 
Q 488 878 497 964 
Q 506 1050 525 1153 
L 897 3053 
L 409 3053 
L 500 3500 
L 978 3500 
L 1172 4494 
L 1747 4494 
L 1556 3500 
L 2706 3500 
z
" transform="scale(0.015625)"/>
      <path id="DejaVuSans-Oblique-69" d="M 1172 4863 
L 1747 4863 
L 1606 4134 
L 1031 4134 
L 1172 4863 
z
M 909 3500 
L 1484 3500 
L 800 0 
L 225 0 
L 909 3500 
z
" transform="scale(0.015625)"/>
      <path id="DejaVuSans-Oblique-63" d="M 3431 3366 
L 3316 2797 
Q 3109 2947 2876 3022 
Q 2644 3097 2394 3097 
Q 2119 3097 1870 3000 
Q 1622 2903 1453 2725 
Q 1184 2453 1037 2087 
Q 891 1722 891 1331 
Q 891 859 1127 628 
Q 1363 397 1844 397 
Q 2081 397 2348 469 
Q 2616 541 2906 684 
L 2797 116 
Q 2547 13 2283 -39 
Q 2019 -91 1741 -91 
Q 1044 -91 669 257 
Q 294 606 294 1253 
Q 294 1797 489 2255 
Q 684 2713 1069 3078 
Q 1331 3328 1684 3456 
Q 2038 3584 2456 3584 
Q 2700 3584 2940 3529 
Q 3181 3475 3431 3366 
z
" transform="scale(0.015625)"/>
      <path id="DejaVuSans-Oblique-73" d="M 3200 3397 
L 3091 2853 
Q 2863 2978 2609 3040 
Q 2356 3103 2088 3103 
Q 1634 3103 1373 2948 
Q 1113 2794 1113 2528 
Q 1113 2219 1719 2053 
Q 1766 2041 1788 2034 
L 1972 1978 
Q 2547 1819 2739 1644 
Q 2931 1469 2931 1166 
Q 2931 609 2489 259 
Q 2047 -91 1331 -91 
Q 1053 -91 747 -37 
Q 441 16 72 128 
L 184 722 
Q 500 559 806 475 
Q 1113 391 1394 391 
Q 1816 391 2080 572 
Q 2344 753 2344 1031 
Q 2344 1331 1650 1516 
L 1591 1531 
L 1394 1581 
Q 956 1697 753 1886 
Q 550 2075 550 2369 
Q 550 2928 970 3256 
Q 1391 3584 2113 3584 
Q 2397 3584 2667 3537 
Q 2938 3491 3200 3397 
z
" transform="scale(0.015625)"/>
      <path id="ArialMT-20" transform="scale(0.015625)"/>
      <path id="ArialMT-3d" d="M 3381 2694 
L 356 2694 
L 356 3219 
L 3381 3219 
L 3381 2694 
z
M 3381 1303 
L 356 1303 
L 356 1828 
L 3381 1828 
L 3381 1303 
z
" transform="scale(0.015625)"/>
      <path id="ArialMT-32" d="M 3222 541 
L 3222 0 
L 194 0 
Q 188 203 259 391 
Q 375 700 629 1000 
Q 884 1300 1366 1694 
Q 2113 2306 2375 2664 
Q 2638 3022 2638 3341 
Q 2638 3675 2398 3904 
Q 2159 4134 1775 4134 
Q 1369 4134 1125 3890 
Q 881 3647 878 3216 
L 300 3275 
Q 359 3922 746 4261 
Q 1134 4600 1788 4600 
Q 2447 4600 2831 4234 
Q 3216 3869 3216 3328 
Q 3216 3053 3103 2787 
Q 2991 2522 2730 2228 
Q 2469 1934 1863 1422 
Q 1356 997 1212 845 
Q 1069 694 975 541 
L 3222 541 
z
" transform="scale(0.015625)"/>
      <path id="ArialMT-33" d="M 269 1209 
L 831 1284 
Q 928 806 1161 595 
Q 1394 384 1728 384 
Q 2125 384 2398 659 
Q 2672 934 2672 1341 
Q 2672 1728 2419 1979 
Q 2166 2231 1775 2231 
Q 1616 2231 1378 2169 
L 1441 2663 
Q 1497 2656 1531 2656 
Q 1891 2656 2178 2843 
Q 2466 3031 2466 3422 
Q 2466 3731 2256 3934 
Q 2047 4138 1716 4138 
Q 1388 4138 1169 3931 
Q 950 3725 888 3313 
L 325 3413 
Q 428 3978 793 4289 
Q 1159 4600 1703 4600 
Q 2078 4600 2393 4439 
Q 2709 4278 2876 4000 
Q 3044 3722 3044 3409 
Q 3044 3113 2884 2869 
Q 2725 2625 2413 2481 
Q 2819 2388 3044 2092 
Q 3269 1797 3269 1353 
Q 3269 753 2831 336 
Q 2394 -81 1725 -81 
Q 1122 -81 723 278 
Q 325 638 269 1209 
z
" transform="scale(0.015625)"/>
      <path id="ArialMT-30" d="M 266 2259 
Q 266 3072 433 3567 
Q 600 4063 929 4331 
Q 1259 4600 1759 4600 
Q 2128 4600 2406 4451 
Q 2684 4303 2865 4023 
Q 3047 3744 3150 3342 
Q 3253 2941 3253 2259 
Q 3253 1453 3087 958 
Q 2922 463 2592 192 
Q 2263 -78 1759 -78 
Q 1097 -78 719 397 
Q 266 969 266 2259 
z
M 844 2259 
Q 844 1131 1108 757 
Q 1372 384 1759 384 
Q 2147 384 2411 759 
Q 2675 1134 2675 2259 
Q 2675 3391 2411 3762 
Q 2147 4134 1753 4134 
Q 1366 4134 1134 3806 
Q 844 3388 844 2259 
z
" transform="scale(0.015625)"/>
     </defs>
     <use xlink:href="#DejaVuSans-Oblique-6e" transform="translate(0 0.125)"/>
     <use xlink:href="#DejaVuSans-Oblique-70" transform="translate(63.378906 -16.28125) scale(0.7)"/>
     <use xlink:href="#DejaVuSans-Oblique-61" transform="translate(107.8125 -16.28125) scale(0.7)"/>
     <use xlink:href="#DejaVuSans-Oblique-72" transform="translate(150.708008 -16.28125) scale(0.7)"/>
     <use xlink:href="#DejaVuSans-Oblique-74" transform="translate(179.487305 -16.28125) scale(0.7)"/>
     <use xlink:href="#DejaVuSans-Oblique-69" transform="translate(206.933594 -16.28125) scale(0.7)"/>
     <use xlink:href="#DejaVuSans-Oblique-63" transform="translate(226.381836 -16.28125) scale(0.7)"/>
     <use xlink:href="#DejaVuSans-Oblique-69" transform="translate(264.868164 -16.28125) scale(0.7)"/>
     <use xlink:href="#DejaVuSans-Oblique-70" transform="translate(284.316406 -16.28125) scale(0.7)"/>
     <use xlink:href="#DejaVuSans-Oblique-61" transform="translate(328.75 -16.28125) scale(0.7)"/>
     <use xlink:href="#DejaVuSans-Oblique-6e" transform="translate(371.645508 -16.28125) scale(0.7)"/>
     <use xlink:href="#DejaVuSans-Oblique-74" transform="translate(416.010742 -16.28125) scale(0.7)"/>
     <use xlink:href="#DejaVuSans-Oblique-73" transform="translate(443.457031 -16.28125) scale(0.7)"/>
     <use xlink:href="#ArialMT-20" transform="translate(482.661133 0.125)"/>
     <use xlink:href="#ArialMT-3d" transform="translate(510.444336 0.125)"/>
     <use xlink:href="#ArialMT-20" transform="translate(568.842773 0.125)"/>
     <use xlink:href="#ArialMT-32" transform="translate(596.625977 0.125)"/>
     <use xlink:href="#ArialMT-33" transform="translate(652.241211 0.125)"/>
     <use xlink:href="#ArialMT-30" transform="translate(707.856445 0.125)"/>
    </g>
   </g>
   <g id="text_6">
    <!-- $n_{participants}$ = 230 -->
    <g style="fill: #1c2529" transform="translate(81.72 148.485562) scale(0.081 -0.081)">
     <use xlink:href="#DejaVuSans-Oblique-6e" transform="translate(0 0.125)"/>
     <use xlink:href="#DejaVuSans-Oblique-70" transform="translate(63.378906 -16.28125) scale(0.7)"/>
     <use xlink:href="#DejaVuSans-Oblique-61" transform="translate(107.8125 -16.28125) scale(0.7)"/>
     <use xlink:href="#DejaVuSans-Oblique-72" transform="translate(150.708008 -16.28125) scale(0.7)"/>
     <use xlink:href="#DejaVuSans-Oblique-74" transform="translate(179.487305 -16.28125) scale(0.7)"/>
     <use xlink:href="#DejaVuSans-Oblique-69" transform="translate(206.933594 -16.28125) scale(0.7)"/>
     <use xlink:href="#DejaVuSans-Oblique-63" transform="translate(226.381836 -16.28125) scale(0.7)"/>
     <use xlink:href="#DejaVuSans-Oblique-69" transform="translate(264.868164 -16.28125) scale(0.7)"/>
     <use xlink:href="#DejaVuSans-Oblique-70" transform="translate(284.316406 -16.28125) scale(0.7)"/>
     <use xlink:href="#DejaVuSans-Oblique-61" transform="translate(328.75 -16.28125) scale(0.7)"/>
     <use xlink:href="#DejaVuSans-Oblique-6e" transform="translate(371.645508 -16.28125) scale(0.7)"/>
     <use xlink:href="#DejaVuSans-Oblique-74" transform="translate(416.010742 -16.28125) scale(0.7)"/>
     <use xlink:href="#DejaVuSans-Oblique-73" transform="translate(443.457031 -16.28125) scale(0.7)"/>
     <use xlink:href="#ArialMT-20" transform="translate(482.661133 0.125)"/>
     <use xlink:href="#ArialMT-3d" transform="translate(510.444336 0.125)"/>
     <use xlink:href="#ArialMT-20" transform="translate(568.842773 0.125)"/>
     <use xlink:href="#ArialMT-32" transform="translate(596.625977 0.125)"/>
     <use xlink:href="#ArialMT-33" transform="translate(652.241211 0.125)"/>
     <use xlink:href="#ArialMT-30" transform="translate(707.856445 0.125)"/>
    </g>
   </g>
   <g id="text_7">
    <!-- $n_{participants}$ = 221 -->
    <g style="fill: #1c2529" transform="translate(81.72 210.214537) scale(0.081 -0.081)">
     <defs>
      <path id="ArialMT-31" d="M 2384 0 
L 1822 0 
L 1822 3584 
Q 1619 3391 1289 3197 
Q 959 3003 697 2906 
L 697 3450 
Q 1169 3672 1522 3987 
Q 1875 4303 2022 4600 
L 2384 4600 
L 2384 0 
z
" transform="scale(0.015625)"/>
     </defs>
     <use xlink:href="#DejaVuSans-Oblique-6e" transform="translate(0 0.125)"/>
     <use xlink:href="#DejaVuSans-Oblique-70" transform="translate(63.378906 -16.28125) scale(0.7)"/>
     <use xlink:href="#DejaVuSans-Oblique-61" transform="translate(107.8125 -16.28125) scale(0.7)"/>
     <use xlink:href="#DejaVuSans-Oblique-72" transform="translate(150.708008 -16.28125) scale(0.7)"/>
     <use xlink:href="#DejaVuSans-Oblique-74" transform="translate(179.487305 -16.28125) scale(0.7)"/>
     <use xlink:href="#DejaVuSans-Oblique-69" transform="translate(206.933594 -16.28125) scale(0.7)"/>
     <use xlink:href="#DejaVuSans-Oblique-63" transform="translate(226.381836 -16.28125) scale(0.7)"/>
     <use xlink:href="#DejaVuSans-Oblique-69" transform="translate(264.868164 -16.28125) scale(0.7)"/>
     <use xlink:href="#DejaVuSans-Oblique-70" transform="translate(284.316406 -16.28125) scale(0.7)"/>
     <use xlink:href="#DejaVuSans-Oblique-61" transform="translate(328.75 -16.28125) scale(0.7)"/>
     <use xlink:href="#DejaVuSans-Oblique-6e" transform="translate(371.645508 -16.28125) scale(0.7)"/>
     <use xlink:href="#DejaVuSans-Oblique-74" transform="translate(416.010742 -16.28125) scale(0.7)"/>
     <use xlink:href="#DejaVuSans-Oblique-73" transform="translate(443.457031 -16.28125) scale(0.7)"/>
     <use xlink:href="#ArialMT-20" transform="translate(482.661133 0.125)"/>
     <use xlink:href="#ArialMT-3d" transform="translate(510.444336 0.125)"/>
     <use xlink:href="#ArialMT-20" transform="translate(568.842773 0.125)"/>
     <use xlink:href="#ArialMT-32" transform="translate(596.625977 0.125)"/>
     <use xlink:href="#ArialMT-32" transform="translate(652.241211 0.125)"/>
     <use xlink:href="#ArialMT-31" transform="translate(707.856445 0.125)"/>
    </g>
   </g>
   <g id="patch_35">
    <path d="M 112.662 38.064487 
Q 112.662 55.113442 112.662 70.653052 
" style="fill: none; stroke: #000000; stroke-width: 1.35; stroke-linecap: round"/>
    <path d="M 115.062 65.853052 
L 112.662 70.653052 
L 110.262 65.853052 
z
" style="stroke: #000000; stroke-width: 1.35; stroke-linecap: round"/>
   </g>
   <g id="patch_36">
    <path d="M 112.662 100.381357 
Q 112.662 115.960575 112.662 130.030447 
" style="fill: none; stroke: #000000; stroke-width: 1.35; stroke-linecap: round"/>
    <path d="M 115.062 125.230447 
L 112.662 130.030447 
L 110.262 125.230447 
z
" style="stroke: #000000; stroke-width: 1.35; stroke-linecap: round"/>
   </g>
   <g id="patch_37">
    <path d="M 112.662 162.110332 
Q 112.662 177.68955 112.662 191.759422 
" style="fill: none; stroke: #000000; stroke-width: 1.35; stroke-linecap: round"/>
    <path d="M 115.062 186.959422 
L 112.662 191.759422 
L 110.262 186.959422 
z
" style="stroke: #000000; stroke-width: 1.35; stroke-linecap: round"/>
   </g>
   <g id="text_8">
    <!-- sMRI -->
    <g style="fill: #1c2529" transform="translate(101.313953 257.166373) scale(0.095 -0.095)">
     <defs>
      <path id="Arial-BoldMT-4d" d="M 453 0 
L 453 4581 
L 1838 4581 
L 2669 1456 
L 3491 4581 
L 4878 4581 
L 4878 0 
L 4019 0 
L 4019 3606 
L 3109 0 
L 2219 0 
L 1313 3606 
L 1313 0 
L 453 0 
z
" transform="scale(0.015625)"/>
     </defs>
     <use xlink:href="#Arial-BoldMT-73"/>
     <use xlink:href="#Arial-BoldMT-4d" transform="translate(55.615234 0)"/>
     <use xlink:href="#Arial-BoldMT-52" transform="translate(138.916016 0)"/>
     <use xlink:href="#Arial-BoldMT-49" transform="translate(211.132812 0)"/>
    </g>
   </g>
   <g id="text_9">
    <!-- $n$ = 231 -->
    <g style="fill: #1c2529" transform="translate(203.127 87.009103) scale(0.074 -0.074)">
     <use xlink:href="#DejaVuSans-Oblique-6e" transform="translate(0 0.125)"/>
     <use xlink:href="#ArialMT-20" transform="translate(63.378906 0.125)"/>
     <use xlink:href="#ArialMT-3d" transform="translate(91.162109 0.125)"/>
     <use xlink:href="#ArialMT-20" transform="translate(149.560547 0.125)"/>
     <use xlink:href="#ArialMT-32" transform="translate(177.34375 0.125)"/>
     <use xlink:href="#ArialMT-33" transform="translate(232.958984 0.125)"/>
     <use xlink:href="#ArialMT-31" transform="translate(288.574219 0.125)"/>
    </g>
   </g>
   <g id="text_10">
    <!-- $n$ = 230 -->
    <g style="fill: #1c2529" transform="translate(203.127 148.738078) scale(0.074 -0.074)">
     <use xlink:href="#DejaVuSans-Oblique-6e" transform="translate(0 0.125)"/>
     <use xlink:href="#ArialMT-20" transform="translate(63.378906 0.125)"/>
     <use xlink:href="#ArialMT-3d" transform="translate(91.162109 0.125)"/>
     <use xlink:href="#ArialMT-20" transform="translate(149.560547 0.125)"/>
     <use xlink:href="#ArialMT-32" transform="translate(177.34375 0.125)"/>
     <use xlink:href="#ArialMT-33" transform="translate(232.958984 0.125)"/>
     <use xlink:href="#ArialMT-30" transform="translate(288.574219 0.125)"/>
    </g>
   </g>
   <g id="text_11">
    <!-- $n$ = 222 -->
    <g style="fill: #1c2529" transform="translate(203.127 210.467053) scale(0.074 -0.074)">
     <use xlink:href="#DejaVuSans-Oblique-6e" transform="translate(0 0.125)"/>
     <use xlink:href="#ArialMT-20" transform="translate(63.378906 0.125)"/>
     <use xlink:href="#ArialMT-3d" transform="translate(91.162109 0.125)"/>
     <use xlink:href="#ArialMT-20" transform="translate(149.560547 0.125)"/>
     <use xlink:href="#ArialMT-32" transform="translate(177.34375 0.125)"/>
     <use xlink:href="#ArialMT-32" transform="translate(232.958984 0.125)"/>
     <use xlink:href="#ArialMT-32" transform="translate(288.574219 0.125)"/>
    </g>
   </g>
   <g id="patch_38">
    <path d="M 215.892 100.381357 
Q 215.892 115.960575 215.892 130.309955 
" style="fill: none; stroke: #000000; stroke-width: 1.1; stroke-linecap: round"/>
    <path d="M 217.892 126.309955 
L 215.892 130.309955 
L 213.892 126.309955 
z
" style="stroke: #000000; stroke-width: 1.1; stroke-linecap: round"/>
   </g>
   <g id="patch_39">
    <path d="M 215.892 162.110332 
Q 215.892 177.68955 215.892 192.03893 
" style="fill: none; stroke: #000000; stroke-width: 1.1; stroke-linecap: round"/>
    <path d="M 217.892 188.03893 
L 215.892 192.03893 
L 213.892 188.03893 
z
" style="stroke: #000000; stroke-width: 1.1; stroke-linecap: round"/>
   </g>
   <g id="text_12">
    <!-- rest- -->
    <g style="fill: #1c2529" transform="translate(209.71507 242.294883) scale(0.057 -0.057)">
     <defs>
      <path id="Arial-BoldMT-2d" d="M 359 1222 
L 359 2100 
L 2084 2100 
L 2084 1222 
L 359 1222 
z
" transform="scale(0.015625)"/>
     </defs>
     <use xlink:href="#Arial-BoldMT-72"/>
     <use xlink:href="#Arial-BoldMT-65" transform="translate(38.916016 0)"/>
     <use xlink:href="#Arial-BoldMT-73" transform="translate(94.53125 0)"/>
     <use xlink:href="#Arial-BoldMT-74" transform="translate(150.146484 0)"/>
     <use xlink:href="#Arial-BoldMT-2d" transform="translate(183.447266 0)"/>
    </g>
    <!-- multiband -->
    <g style="fill: #1c2529" transform="translate(202.277461 248.315686) scale(0.057 -0.057)">
     <defs>
      <path id="Arial-BoldMT-6d" d="M 394 3319 
L 1203 3319 
L 1203 2866 
Q 1638 3394 2238 3394 
Q 2556 3394 2790 3262 
Q 3025 3131 3175 2866 
Q 3394 3131 3647 3262 
Q 3900 3394 4188 3394 
Q 4553 3394 4806 3245 
Q 5059 3097 5184 2809 
Q 5275 2597 5275 2122 
L 5275 0 
L 4397 0 
L 4397 1897 
Q 4397 2391 4306 2534 
Q 4184 2722 3931 2722 
Q 3747 2722 3584 2609 
Q 3422 2497 3350 2280 
Q 3278 2063 3278 1594 
L 3278 0 
L 2400 0 
L 2400 1819 
Q 2400 2303 2353 2443 
Q 2306 2584 2207 2653 
Q 2109 2722 1941 2722 
Q 1738 2722 1575 2612 
Q 1413 2503 1342 2297 
Q 1272 2091 1272 1613 
L 1272 0 
L 394 0 
L 394 3319 
z
" transform="scale(0.015625)"/>
      <path id="Arial-BoldMT-75" d="M 2644 0 
L 2644 497 
Q 2463 231 2167 78 
Q 1872 -75 1544 -75 
Q 1209 -75 943 72 
Q 678 219 559 484 
Q 441 750 441 1219 
L 441 3319 
L 1319 3319 
L 1319 1794 
Q 1319 1094 1367 936 
Q 1416 778 1544 686 
Q 1672 594 1869 594 
Q 2094 594 2272 717 
Q 2450 841 2515 1023 
Q 2581 1206 2581 1919 
L 2581 3319 
L 3459 3319 
L 3459 0 
L 2644 0 
z
" transform="scale(0.015625)"/>
      <path id="Arial-BoldMT-64" d="M 3503 0 
L 2688 0 
L 2688 488 
Q 2484 203 2207 64 
Q 1931 -75 1650 -75 
Q 1078 -75 670 386 
Q 263 847 263 1672 
Q 263 2516 659 2955 
Q 1056 3394 1663 3394 
Q 2219 3394 2625 2931 
L 2625 4581 
L 3503 4581 
L 3503 0 
z
M 1159 1731 
Q 1159 1200 1306 963 
Q 1519 619 1900 619 
Q 2203 619 2415 876 
Q 2628 1134 2628 1647 
Q 2628 2219 2422 2470 
Q 2216 2722 1894 2722 
Q 1581 2722 1370 2473 
Q 1159 2225 1159 1731 
z
" transform="scale(0.015625)"/>
     </defs>
     <use xlink:href="#Arial-BoldMT-6d"/>
     <use xlink:href="#Arial-BoldMT-75" transform="translate(88.916016 0)"/>
     <use xlink:href="#Arial-BoldMT-6c" transform="translate(150 0)"/>
     <use xlink:href="#Arial-BoldMT-74" transform="translate(177.783203 0)"/>
     <use xlink:href="#Arial-BoldMT-69" transform="translate(211.083984 0)"/>
     <use xlink:href="#Arial-BoldMT-62" transform="translate(238.867188 0)"/>
     <use xlink:href="#Arial-BoldMT-61" transform="translate(299.951172 0)"/>
     <use xlink:href="#Arial-BoldMT-6e" transform="translate(355.566406 0)"/>
     <use xlink:href="#Arial-BoldMT-64" transform="translate(416.650391 0)"/>
    </g>
   </g>
   <g id="text_13">
    <!-- $n$ = 215 -->
    <g style="fill: #1c2529" transform="translate(253.905 87.009103) scale(0.074 -0.074)">
     <defs>
      <path id="ArialMT-35" d="M 266 1200 
L 856 1250 
Q 922 819 1161 601 
Q 1400 384 1738 384 
Q 2144 384 2425 690 
Q 2706 997 2706 1503 
Q 2706 1984 2436 2262 
Q 2166 2541 1728 2541 
Q 1456 2541 1237 2417 
Q 1019 2294 894 2097 
L 366 2166 
L 809 4519 
L 3088 4519 
L 3088 3981 
L 1259 3981 
L 1013 2750 
Q 1425 3038 1878 3038 
Q 2478 3038 2890 2622 
Q 3303 2206 3303 1553 
Q 3303 931 2941 478 
Q 2500 -78 1738 -78 
Q 1113 -78 717 272 
Q 322 622 266 1200 
z
" transform="scale(0.015625)"/>
     </defs>
     <use xlink:href="#DejaVuSans-Oblique-6e" transform="translate(0 0.125)"/>
     <use xlink:href="#ArialMT-20" transform="translate(63.378906 0.125)"/>
     <use xlink:href="#ArialMT-3d" transform="translate(91.162109 0.125)"/>
     <use xlink:href="#ArialMT-20" transform="translate(149.560547 0.125)"/>
     <use xlink:href="#ArialMT-32" transform="translate(177.34375 0.125)"/>
     <use xlink:href="#ArialMT-31" transform="translate(232.958984 0.125)"/>
     <use xlink:href="#ArialMT-35" transform="translate(288.574219 0.125)"/>
    </g>
   </g>
   <g id="text_14">
    <!-- $n$ = 214 -->
    <g style="fill: #1c2529" transform="translate(253.905 148.738078) scale(0.074 -0.074)">
     <defs>
      <path id="ArialMT-34" d="M 2069 0 
L 2069 1097 
L 81 1097 
L 81 1613 
L 2172 4581 
L 2631 4581 
L 2631 1613 
L 3250 1613 
L 3250 1097 
L 2631 1097 
L 2631 0 
L 2069 0 
z
M 2069 1613 
L 2069 3678 
L 634 1613 
L 2069 1613 
z
" transform="scale(0.015625)"/>
     </defs>
     <use xlink:href="#DejaVuSans-Oblique-6e" transform="translate(0 0.125)"/>
     <use xlink:href="#ArialMT-20" transform="translate(63.378906 0.125)"/>
     <use xlink:href="#ArialMT-3d" transform="translate(91.162109 0.125)"/>
     <use xlink:href="#ArialMT-20" transform="translate(149.560547 0.125)"/>
     <use xlink:href="#ArialMT-32" transform="translate(177.34375 0.125)"/>
     <use xlink:href="#ArialMT-31" transform="translate(232.958984 0.125)"/>
     <use xlink:href="#ArialMT-34" transform="translate(288.574219 0.125)"/>
    </g>
   </g>
   <g id="text_15">
    <!-- $n$ = 205 -->
    <g style="fill: #1c2529" transform="translate(253.905 210.467053) scale(0.074 -0.074)">
     <use xlink:href="#DejaVuSans-Oblique-6e" transform="translate(0 0.125)"/>
     <use xlink:href="#ArialMT-20" transform="translate(63.378906 0.125)"/>
     <use xlink:href="#ArialMT-3d" transform="translate(91.162109 0.125)"/>
     <use xlink:href="#ArialMT-20" transform="translate(149.560547 0.125)"/>
     <use xlink:href="#ArialMT-32" transform="translate(177.34375 0.125)"/>
     <use xlink:href="#ArialMT-30" transform="translate(232.958984 0.125)"/>
     <use xlink:href="#ArialMT-35" transform="translate(288.574219 0.125)"/>
    </g>
   </g>
   <g id="patch_40">
    <path d="M 266.67 100.381357 
Q 266.67 115.960575 266.67 130.309955 
" style="fill: none; stroke: #000000; stroke-width: 1.1; stroke-linecap: round"/>
    <path d="M 268.67 126.309955 
L 266.67 130.309955 
L 264.67 126.309955 
z
" style="stroke: #000000; stroke-width: 1.1; stroke-linecap: round"/>
   </g>
   <g id="patch_41">
    <path d="M 266.67 162.110332 
Q 266.67 177.68955 266.67 192.03893 
" style="fill: none; stroke: #000000; stroke-width: 1.1; stroke-linecap: round"/>
    <path d="M 268.67 188.03893 
L 266.67 192.03893 
L 264.67 188.03893 
z
" style="stroke: #000000; stroke-width: 1.1; stroke-linecap: round"/>
   </g>
   <g id="text_16">
    <!-- rest- -->
    <g style="fill: #1c2529" transform="translate(260.49307 242.257477) scale(0.057 -0.057)">
     <use xlink:href="#Arial-BoldMT-72"/>
     <use xlink:href="#Arial-BoldMT-65" transform="translate(38.916016 0)"/>
     <use xlink:href="#Arial-BoldMT-73" transform="translate(94.53125 0)"/>
     <use xlink:href="#Arial-BoldMT-74" transform="translate(150.146484 0)"/>
     <use xlink:href="#Arial-BoldMT-2d" transform="translate(183.447266 0)"/>
    </g>
    <!-- singleband -->
    <g style="fill: #1c2529" transform="translate(251.628234 248.27828) scale(0.057 -0.057)">
     <defs>
      <path id="Arial-BoldMT-67" d="M 378 -219 
L 1381 -341 
Q 1406 -516 1497 -581 
Q 1622 -675 1891 -675 
Q 2234 -675 2406 -572 
Q 2522 -503 2581 -350 
Q 2622 -241 2622 53 
L 2622 538 
Q 2228 0 1628 0 
Q 959 0 569 566 
Q 263 1013 263 1678 
Q 263 2513 664 2953 
Q 1066 3394 1663 3394 
Q 2278 3394 2678 2853 
L 2678 3319 
L 3500 3319 
L 3500 341 
Q 3500 -247 3403 -537 
Q 3306 -828 3131 -993 
Q 2956 -1159 2664 -1253 
Q 2372 -1347 1925 -1347 
Q 1081 -1347 728 -1058 
Q 375 -769 375 -325 
Q 375 -281 378 -219 
z
M 1163 1728 
Q 1163 1200 1367 954 
Q 1572 709 1872 709 
Q 2194 709 2416 961 
Q 2638 1213 2638 1706 
Q 2638 2222 2425 2472 
Q 2213 2722 1888 2722 
Q 1572 2722 1367 2476 
Q 1163 2231 1163 1728 
z
" transform="scale(0.015625)"/>
     </defs>
     <use xlink:href="#Arial-BoldMT-73"/>
     <use xlink:href="#Arial-BoldMT-69" transform="translate(55.615234 0)"/>
     <use xlink:href="#Arial-BoldMT-6e" transform="translate(83.398438 0)"/>
     <use xlink:href="#Arial-BoldMT-67" transform="translate(144.482422 0)"/>
     <use xlink:href="#Arial-BoldMT-6c" transform="translate(205.566406 0)"/>
     <use xlink:href="#Arial-BoldMT-65" transform="translate(233.349609 0)"/>
     <use xlink:href="#Arial-BoldMT-62" transform="translate(288.964844 0)"/>
     <use xlink:href="#Arial-BoldMT-61" transform="translate(350.048828 0)"/>
     <use xlink:href="#Arial-BoldMT-6e" transform="translate(405.664062 0)"/>
     <use xlink:href="#Arial-BoldMT-64" transform="translate(466.748047 0)"/>
    </g>
   </g>
   <g id="text_17">
    <!-- $n$ = 199 -->
    <g style="fill: #1c2529" transform="translate(304.683 87.009103) scale(0.074 -0.074)">
     <defs>
      <path id="ArialMT-39" d="M 350 1059 
L 891 1109 
Q 959 728 1153 556 
Q 1347 384 1650 384 
Q 1909 384 2104 503 
Q 2300 622 2425 820 
Q 2550 1019 2634 1356 
Q 2719 1694 2719 2044 
Q 2719 2081 2716 2156 
Q 2547 1888 2255 1720 
Q 1963 1553 1622 1553 
Q 1053 1553 659 1965 
Q 266 2378 266 3053 
Q 266 3750 677 4175 
Q 1088 4600 1706 4600 
Q 2153 4600 2523 4359 
Q 2894 4119 3086 3673 
Q 3278 3228 3278 2384 
Q 3278 1506 3087 986 
Q 2897 466 2520 194 
Q 2144 -78 1638 -78 
Q 1100 -78 759 220 
Q 419 519 350 1059 
z
M 2653 3081 
Q 2653 3566 2395 3850 
Q 2138 4134 1775 4134 
Q 1400 4134 1122 3828 
Q 844 3522 844 3034 
Q 844 2597 1108 2323 
Q 1372 2050 1759 2050 
Q 2150 2050 2401 2323 
Q 2653 2597 2653 3081 
z
" transform="scale(0.015625)"/>
     </defs>
     <use xlink:href="#DejaVuSans-Oblique-6e" transform="translate(0 0.125)"/>
     <use xlink:href="#ArialMT-20" transform="translate(63.378906 0.125)"/>
     <use xlink:href="#ArialMT-3d" transform="translate(91.162109 0.125)"/>
     <use xlink:href="#ArialMT-20" transform="translate(149.560547 0.125)"/>
     <use xlink:href="#ArialMT-31" transform="translate(177.34375 0.125)"/>
     <use xlink:href="#ArialMT-39" transform="translate(232.958984 0.125)"/>
     <use xlink:href="#ArialMT-39" transform="translate(288.574219 0.125)"/>
    </g>
   </g>
   <g id="text_18">
    <!-- $n$ = 199 -->
    <g style="fill: #1c2529" transform="translate(304.683 148.738078) scale(0.074 -0.074)">
     <use xlink:href="#DejaVuSans-Oblique-6e" transform="translate(0 0.125)"/>
     <use xlink:href="#ArialMT-20" transform="translate(63.378906 0.125)"/>
     <use xlink:href="#ArialMT-3d" transform="translate(91.162109 0.125)"/>
     <use xlink:href="#ArialMT-20" transform="translate(149.560547 0.125)"/>
     <use xlink:href="#ArialMT-31" transform="translate(177.34375 0.125)"/>
     <use xlink:href="#ArialMT-39" transform="translate(232.958984 0.125)"/>
     <use xlink:href="#ArialMT-39" transform="translate(288.574219 0.125)"/>
    </g>
   </g>
   <g id="text_19">
    <!-- $n$ = 194 -->
    <g style="fill: #1c2529" transform="translate(304.683 210.467053) scale(0.074 -0.074)">
     <use xlink:href="#DejaVuSans-Oblique-6e" transform="translate(0 0.125)"/>
     <use xlink:href="#ArialMT-20" transform="translate(63.378906 0.125)"/>
     <use xlink:href="#ArialMT-3d" transform="translate(91.162109 0.125)"/>
     <use xlink:href="#ArialMT-20" transform="translate(149.560547 0.125)"/>
     <use xlink:href="#ArialMT-31" transform="translate(177.34375 0.125)"/>
     <use xlink:href="#ArialMT-39" transform="translate(232.958984 0.125)"/>
     <use xlink:href="#ArialMT-34" transform="translate(288.574219 0.125)"/>
    </g>
   </g>
   <g id="patch_42">
    <path d="M 317.448 100.381357 
Q 317.448 115.960575 317.448 130.309955 
" style="fill: none; stroke: #000000; stroke-width: 1.1; stroke-linecap: round"/>
    <path d="M 319.448 126.309955 
L 317.448 130.309955 
L 315.448 126.309955 
z
" style="stroke: #000000; stroke-width: 1.1; stroke-linecap: round"/>
   </g>
   <g id="patch_43">
    <path d="M 317.448 162.110332 
Q 317.448 177.68955 317.448 192.03893 
" style="fill: none; stroke: #000000; stroke-width: 1.1; stroke-linecap: round"/>
    <path d="M 319.448 188.03893 
L 317.448 192.03893 
L 315.448 188.03893 
z
" style="stroke: #000000; stroke-width: 1.1; stroke-linecap: round"/>
   </g>
   <g id="text_20">
    <!-- fracback -->
    <g style="fill: #1c2529" transform="translate(305.724703 245.305284) scale(0.057 -0.057)">
     <defs>
      <path id="Arial-BoldMT-66" d="M 75 3319 
L 563 3319 
L 563 3569 
Q 563 3988 652 4194 
Q 741 4400 980 4529 
Q 1219 4659 1584 4659 
Q 1959 4659 2319 4547 
L 2200 3934 
Q 1991 3984 1797 3984 
Q 1606 3984 1523 3895 
Q 1441 3806 1441 3553 
L 1441 3319 
L 2097 3319 
L 2097 2628 
L 1441 2628 
L 1441 0 
L 563 0 
L 563 2628 
L 75 2628 
L 75 3319 
z
" transform="scale(0.015625)"/>
      <path id="Arial-BoldMT-6b" d="M 428 0 
L 428 4581 
L 1306 4581 
L 1306 2150 
L 2334 3319 
L 3416 3319 
L 2281 2106 
L 3497 0 
L 2550 0 
L 1716 1491 
L 1306 1063 
L 1306 0 
L 428 0 
z
" transform="scale(0.015625)"/>
     </defs>
     <use xlink:href="#Arial-BoldMT-66"/>
     <use xlink:href="#Arial-BoldMT-72" transform="translate(33.300781 0)"/>
     <use xlink:href="#Arial-BoldMT-61" transform="translate(72.216797 0)"/>
     <use xlink:href="#Arial-BoldMT-63" transform="translate(127.832031 0)"/>
     <use xlink:href="#Arial-BoldMT-62" transform="translate(183.447266 0)"/>
     <use xlink:href="#Arial-BoldMT-61" transform="translate(244.53125 0)"/>
     <use xlink:href="#Arial-BoldMT-63" transform="translate(300.146484 0)"/>
     <use xlink:href="#Arial-BoldMT-6b" transform="translate(355.761719 0)"/>
    </g>
   </g>
   <g id="text_21">
    <!-- $n$ = 48 -->
    <g style="fill: #1c2529" transform="translate(357.533 87.009103) scale(0.074 -0.074)">
     <defs>
      <path id="ArialMT-38" d="M 1131 2484 
Q 781 2613 612 2850 
Q 444 3088 444 3419 
Q 444 3919 803 4259 
Q 1163 4600 1759 4600 
Q 2359 4600 2725 4251 
Q 3091 3903 3091 3403 
Q 3091 3084 2923 2848 
Q 2756 2613 2416 2484 
Q 2838 2347 3058 2040 
Q 3278 1734 3278 1309 
Q 3278 722 2862 322 
Q 2447 -78 1769 -78 
Q 1091 -78 675 323 
Q 259 725 259 1325 
Q 259 1772 486 2073 
Q 713 2375 1131 2484 
z
M 1019 3438 
Q 1019 3113 1228 2906 
Q 1438 2700 1772 2700 
Q 2097 2700 2305 2904 
Q 2513 3109 2513 3406 
Q 2513 3716 2298 3927 
Q 2084 4138 1766 4138 
Q 1444 4138 1231 3931 
Q 1019 3725 1019 3438 
z
M 838 1322 
Q 838 1081 952 856 
Q 1066 631 1291 507 
Q 1516 384 1775 384 
Q 2178 384 2440 643 
Q 2703 903 2703 1303 
Q 2703 1709 2433 1975 
Q 2163 2241 1756 2241 
Q 1359 2241 1098 1978 
Q 838 1716 838 1322 
z
" transform="scale(0.015625)"/>
     </defs>
     <use xlink:href="#DejaVuSans-Oblique-6e" transform="translate(0 0.125)"/>
     <use xlink:href="#ArialMT-20" transform="translate(63.378906 0.125)"/>
     <use xlink:href="#ArialMT-3d" transform="translate(91.162109 0.125)"/>
     <use xlink:href="#ArialMT-20" transform="translate(149.560547 0.125)"/>
     <use xlink:href="#ArialMT-34" transform="translate(177.34375 0.125)"/>
     <use xlink:href="#ArialMT-38" transform="translate(232.958984 0.125)"/>
    </g>
   </g>
   <g id="text_22">
    <!-- $n$ = 48 -->
    <g style="fill: #1c2529" transform="translate(357.533 148.738078) scale(0.074 -0.074)">
     <use xlink:href="#DejaVuSans-Oblique-6e" transform="translate(0 0.125)"/>
     <use xlink:href="#ArialMT-20" transform="translate(63.378906 0.125)"/>
     <use xlink:href="#ArialMT-3d" transform="translate(91.162109 0.125)"/>
     <use xlink:href="#ArialMT-20" transform="translate(149.560547 0.125)"/>
     <use xlink:href="#ArialMT-34" transform="translate(177.34375 0.125)"/>
     <use xlink:href="#ArialMT-38" transform="translate(232.958984 0.125)"/>
    </g>
   </g>
   <g id="text_23">
    <!-- $n$ = 44 -->
    <g style="fill: #1c2529" transform="translate(357.533 210.467053) scale(0.074 -0.074)">
     <use xlink:href="#DejaVuSans-Oblique-6e" transform="translate(0 0.421875)"/>
     <use xlink:href="#ArialMT-20" transform="translate(63.378906 0.421875)"/>
     <use xlink:href="#ArialMT-3d" transform="translate(91.162109 0.421875)"/>
     <use xlink:href="#ArialMT-20" transform="translate(149.560547 0.421875)"/>
     <use xlink:href="#ArialMT-34" transform="translate(177.34375 0.421875)"/>
     <use xlink:href="#ArialMT-34" transform="translate(232.958984 0.421875)"/>
    </g>
   </g>
   <g id="patch_44">
    <path d="M 368.226 100.381357 
Q 368.226 115.960575 368.226 130.309955 
" style="fill: none; stroke: #000000; stroke-width: 1.1; stroke-linecap: round"/>
    <path d="M 370.226 126.309955 
L 368.226 130.309955 
L 366.226 126.309955 
z
" style="stroke: #000000; stroke-width: 1.1; stroke-linecap: round"/>
   </g>
   <g id="patch_45">
    <path d="M 368.226 162.110332 
Q 368.226 177.68955 368.226 192.03893 
" style="fill: none; stroke: #000000; stroke-width: 1.1; stroke-linecap: round"/>
    <path d="M 370.226 188.03893 
L 368.226 192.03893 
L 366.226 188.03893 
z
" style="stroke: #000000; stroke-width: 1.1; stroke-linecap: round"/>
   </g>
   <g id="text_24">
    <!-- face -->
    <g style="fill: #1c2529" transform="translate(362.522438 245.305284) scale(0.057 -0.057)">
     <use xlink:href="#Arial-BoldMT-66"/>
     <use xlink:href="#Arial-BoldMT-61" transform="translate(33.300781 0)"/>
     <use xlink:href="#Arial-BoldMT-63" transform="translate(88.916016 0)"/>
     <use xlink:href="#Arial-BoldMT-65" transform="translate(144.53125 0)"/>
    </g>
   </g>
   <g id="patch_46">
    <path d="M 292.059 38.064487 
Q 292.059 45.854096 292.059 52.134359 
" style="fill: none; stroke: #000000; stroke-width: 1.35; stroke-linecap: round"/>
    <path d="M 294.259 47.734359 
L 292.059 52.134359 
L 289.859 47.734359 
z
" style="stroke: #000000; stroke-width: 1.35; stroke-linecap: round"/>
   </g>
   <g id="patch_47">
    <path d="M 215.892 53.643705 
Q 215.892 62.903051 215.892 70.988462 
" style="fill: none; stroke: #000000; stroke-width: 1.05; stroke-linecap: round"/>
    <path d="M 217.692 67.388462 
L 215.892 70.988462 
L 214.092 67.388462 
z
" style="stroke: #000000; stroke-width: 1.05; stroke-linecap: round"/>
   </g>
   <g id="patch_48">
    <path d="M 266.67 53.643705 
Q 266.67 62.903051 266.67 70.988462 
" style="fill: none; stroke: #000000; stroke-width: 1.05; stroke-linecap: round"/>
    <path d="M 268.47 67.388462 
L 266.67 70.988462 
L 264.87 67.388462 
z
" style="stroke: #000000; stroke-width: 1.05; stroke-linecap: round"/>
   </g>
   <g id="patch_49">
    <path d="M 317.448 53.643705 
Q 317.448 62.903051 317.448 70.988462 
" style="fill: none; stroke: #000000; stroke-width: 1.05; stroke-linecap: round"/>
    <path d="M 319.248 67.388462 
L 317.448 70.988462 
L 315.648 67.388462 
z
" style="stroke: #000000; stroke-width: 1.05; stroke-linecap: round"/>
   </g>
   <g id="patch_50">
    <path d="M 368.226 53.643705 
Q 368.226 62.903051 368.226 70.988462 
" style="fill: none; stroke: #000000; stroke-width: 1.05; stroke-linecap: round"/>
    <path d="M 370.026 67.388462 
L 368.226 70.988462 
L 366.426 67.388462 
z
" style="stroke: #000000; stroke-width: 1.05; stroke-linecap: round"/>
   </g>
   <g id="text_25">
    <!-- fMRI -->
    <g style="fill: #1c2529" transform="translate(281.770797 263.045323) scale(0.095 -0.095)">
     <use xlink:href="#Arial-BoldMT-66"/>
     <use xlink:href="#Arial-BoldMT-4d" transform="translate(33.300781 0)"/>
     <use xlink:href="#Arial-BoldMT-52" transform="translate(116.601562 0)"/>
     <use xlink:href="#Arial-BoldMT-49" transform="translate(188.818359 0)"/>
    </g>
   </g>
   <g id="text_26">
    <!-- $n_{participants}$ = 177 -->
    <g style="fill: #1c2529" transform="translate(440.514 86.756587) scale(0.081 -0.081)">
     <defs>
      <path id="ArialMT-37" d="M 303 3981 
L 303 4522 
L 3269 4522 
L 3269 4084 
Q 2831 3619 2401 2847 
Q 1972 2075 1738 1259 
Q 1569 684 1522 0 
L 944 0 
Q 953 541 1156 1306 
Q 1359 2072 1739 2783 
Q 2119 3494 2547 3981 
L 303 3981 
z
" transform="scale(0.015625)"/>
     </defs>
     <use xlink:href="#DejaVuSans-Oblique-6e" transform="translate(0 0.125)"/>
     <use xlink:href="#DejaVuSans-Oblique-70" transform="translate(63.378906 -16.28125) scale(0.7)"/>
     <use xlink:href="#DejaVuSans-Oblique-61" transform="translate(107.8125 -16.28125) scale(0.7)"/>
     <use xlink:href="#DejaVuSans-Oblique-72" transform="translate(150.708008 -16.28125) scale(0.7)"/>
     <use xlink:href="#DejaVuSans-Oblique-74" transform="translate(179.487305 -16.28125) scale(0.7)"/>
     <use xlink:href="#DejaVuSans-Oblique-69" transform="translate(206.933594 -16.28125) scale(0.7)"/>
     <use xlink:href="#DejaVuSans-Oblique-63" transform="translate(226.381836 -16.28125) scale(0.7)"/>
     <use xlink:href="#DejaVuSans-Oblique-69" transform="translate(264.868164 -16.28125) scale(0.7)"/>
     <use xlink:href="#DejaVuSans-Oblique-70" transform="translate(284.316406 -16.28125) scale(0.7)"/>
     <use xlink:href="#DejaVuSans-Oblique-61" transform="translate(328.75 -16.28125) scale(0.7)"/>
     <use xlink:href="#DejaVuSans-Oblique-6e" transform="translate(371.645508 -16.28125) scale(0.7)"/>
     <use xlink:href="#DejaVuSans-Oblique-74" transform="translate(416.010742 -16.28125) scale(0.7)"/>
     <use xlink:href="#DejaVuSans-Oblique-73" transform="translate(443.457031 -16.28125) scale(0.7)"/>
     <use xlink:href="#ArialMT-20" transform="translate(482.661133 0.125)"/>
     <use xlink:href="#ArialMT-3d" transform="translate(510.444336 0.125)"/>
     <use xlink:href="#ArialMT-20" transform="translate(568.842773 0.125)"/>
     <use xlink:href="#ArialMT-31" transform="translate(596.625977 0.125)"/>
     <use xlink:href="#ArialMT-37" transform="translate(652.241211 0.125)"/>
     <use xlink:href="#ArialMT-37" transform="translate(707.856445 0.125)"/>
    </g>
   </g>
   <g id="text_27">
    <!-- $n_{participants}$ = 176 -->
    <g style="fill: #1c2529" transform="translate(440.514 148.485562) scale(0.081 -0.081)">
     <defs>
      <path id="ArialMT-36" d="M 3184 3459 
L 2625 3416 
Q 2550 3747 2413 3897 
Q 2184 4138 1850 4138 
Q 1581 4138 1378 3988 
Q 1113 3794 959 3422 
Q 806 3050 800 2363 
Q 1003 2672 1297 2822 
Q 1591 2972 1913 2972 
Q 2475 2972 2870 2558 
Q 3266 2144 3266 1488 
Q 3266 1056 3080 686 
Q 2894 316 2569 119 
Q 2244 -78 1831 -78 
Q 1128 -78 684 439 
Q 241 956 241 2144 
Q 241 3472 731 4075 
Q 1159 4600 1884 4600 
Q 2425 4600 2770 4297 
Q 3116 3994 3184 3459 
z
M 888 1484 
Q 888 1194 1011 928 
Q 1134 663 1356 523 
Q 1578 384 1822 384 
Q 2178 384 2434 671 
Q 2691 959 2691 1453 
Q 2691 1928 2437 2201 
Q 2184 2475 1800 2475 
Q 1419 2475 1153 2201 
Q 888 1928 888 1484 
z
" transform="scale(0.015625)"/>
     </defs>
     <use xlink:href="#DejaVuSans-Oblique-6e" transform="translate(0 0.125)"/>
     <use xlink:href="#DejaVuSans-Oblique-70" transform="translate(63.378906 -16.28125) scale(0.7)"/>
     <use xlink:href="#DejaVuSans-Oblique-61" transform="translate(107.8125 -16.28125) scale(0.7)"/>
     <use xlink:href="#DejaVuSans-Oblique-72" transform="translate(150.708008 -16.28125) scale(0.7)"/>
     <use xlink:href="#DejaVuSans-Oblique-74" transform="translate(179.487305 -16.28125) scale(0.7)"/>
     <use xlink:href="#DejaVuSans-Oblique-69" transform="translate(206.933594 -16.28125) scale(0.7)"/>
     <use xlink:href="#DejaVuSans-Oblique-63" transform="translate(226.381836 -16.28125) scale(0.7)"/>
     <use xlink:href="#DejaVuSans-Oblique-69" transform="translate(264.868164 -16.28125) scale(0.7)"/>
     <use xlink:href="#DejaVuSans-Oblique-70" transform="translate(284.316406 -16.28125) scale(0.7)"/>
     <use xlink:href="#DejaVuSans-Oblique-61" transform="translate(328.75 -16.28125) scale(0.7)"/>
     <use xlink:href="#DejaVuSans-Oblique-6e" transform="translate(371.645508 -16.28125) scale(0.7)"/>
     <use xlink:href="#DejaVuSans-Oblique-74" transform="translate(416.010742 -16.28125) scale(0.7)"/>
     <use xlink:href="#DejaVuSans-Oblique-73" transform="translate(443.457031 -16.28125) scale(0.7)"/>
     <use xlink:href="#ArialMT-20" transform="translate(482.661133 0.125)"/>
     <use xlink:href="#ArialMT-3d" transform="translate(510.444336 0.125)"/>
     <use xlink:href="#ArialMT-20" transform="translate(568.842773 0.125)"/>
     <use xlink:href="#ArialMT-31" transform="translate(596.625977 0.125)"/>
     <use xlink:href="#ArialMT-37" transform="translate(652.241211 0.125)"/>
     <use xlink:href="#ArialMT-36" transform="translate(707.856445 0.125)"/>
    </g>
   </g>
   <g id="text_28">
    <!-- $n_{participants}$ = 176 -->
    <g style="fill: #1c2529" transform="translate(440.514 210.214537) scale(0.081 -0.081)">
     <use xlink:href="#DejaVuSans-Oblique-6e" transform="translate(0 0.125)"/>
     <use xlink:href="#DejaVuSans-Oblique-70" transform="translate(63.378906 -16.28125) scale(0.7)"/>
     <use xlink:href="#DejaVuSans-Oblique-61" transform="translate(107.8125 -16.28125) scale(0.7)"/>
     <use xlink:href="#DejaVuSans-Oblique-72" transform="translate(150.708008 -16.28125) scale(0.7)"/>
     <use xlink:href="#DejaVuSans-Oblique-74" transform="translate(179.487305 -16.28125) scale(0.7)"/>
     <use xlink:href="#DejaVuSans-Oblique-69" transform="translate(206.933594 -16.28125) scale(0.7)"/>
     <use xlink:href="#DejaVuSans-Oblique-63" transform="translate(226.381836 -16.28125) scale(0.7)"/>
     <use xlink:href="#DejaVuSans-Oblique-69" transform="translate(264.868164 -16.28125) scale(0.7)"/>
     <use xlink:href="#DejaVuSans-Oblique-70" transform="translate(284.316406 -16.28125) scale(0.7)"/>
     <use xlink:href="#DejaVuSans-Oblique-61" transform="translate(328.75 -16.28125) scale(0.7)"/>
     <use xlink:href="#DejaVuSans-Oblique-6e" transform="translate(371.645508 -16.28125) scale(0.7)"/>
     <use xlink:href="#DejaVuSans-Oblique-74" transform="translate(416.010742 -16.28125) scale(0.7)"/>
     <use xlink:href="#DejaVuSans-Oblique-73" transform="translate(443.457031 -16.28125) scale(0.7)"/>
     <use xlink:href="#ArialMT-20" transform="translate(482.661133 0.125)"/>
     <use xlink:href="#ArialMT-3d" transform="translate(510.444336 0.125)"/>
     <use xlink:href="#ArialMT-20" transform="translate(568.842773 0.125)"/>
     <use xlink:href="#ArialMT-31" transform="translate(596.625977 0.125)"/>
     <use xlink:href="#ArialMT-37" transform="translate(652.241211 0.125)"/>
     <use xlink:href="#ArialMT-36" transform="translate(707.856445 0.125)"/>
    </g>
   </g>
   <g id="patch_51">
    <path d="M 471.456 38.064487 
Q 471.456 55.113442 471.456 70.653052 
" style="fill: none; stroke: #000000; stroke-width: 1.35; stroke-linecap: round"/>
    <path d="M 473.856 65.853052 
L 471.456 70.653052 
L 469.056 65.853052 
z
" style="stroke: #000000; stroke-width: 1.35; stroke-linecap: round"/>
   </g>
   <g id="patch_52">
    <path d="M 471.456 100.381357 
Q 471.456 115.960575 471.456 130.030447 
" style="fill: none; stroke: #000000; stroke-width: 1.35; stroke-linecap: round"/>
    <path d="M 473.856 125.230447 
L 471.456 130.030447 
L 469.056 125.230447 
z
" style="stroke: #000000; stroke-width: 1.35; stroke-linecap: round"/>
   </g>
   <g id="patch_53">
    <path d="M 471.456 162.110332 
Q 471.456 177.68955 471.456 191.759422 
" style="fill: none; stroke: #000000; stroke-width: 1.35; stroke-linecap: round"/>
    <path d="M 473.856 186.959422 
L 471.456 191.759422 
L 469.056 186.959422 
z
" style="stroke: #000000; stroke-width: 1.35; stroke-linecap: round"/>
   </g>
   <g id="text_29">
    <!-- DWI -->
    <g style="fill: #1c2529" transform="translate(462.222445 257.166373) scale(0.095 -0.095)">
     <use xlink:href="#Arial-BoldMT-44"/>
     <use xlink:href="#Arial-BoldMT-57" transform="translate(72.216797 0)"/>
     <use xlink:href="#Arial-BoldMT-49" transform="translate(166.601562 0)"/>
    </g>
   </g>
   <g id="text_30">
    <!-- $n_{participants}$ = 196 -->
    <g style="fill: #1c2529" transform="translate(572.76 86.756587) scale(0.081 -0.081)">
     <use xlink:href="#DejaVuSans-Oblique-6e" transform="translate(0 0.125)"/>
     <use xlink:href="#DejaVuSans-Oblique-70" transform="translate(63.378906 -16.28125) scale(0.7)"/>
     <use xlink:href="#DejaVuSans-Oblique-61" transform="translate(107.8125 -16.28125) scale(0.7)"/>
     <use xlink:href="#DejaVuSans-Oblique-72" transform="translate(150.708008 -16.28125) scale(0.7)"/>
     <use xlink:href="#DejaVuSans-Oblique-74" transform="translate(179.487305 -16.28125) scale(0.7)"/>
     <use xlink:href="#DejaVuSans-Oblique-69" transform="translate(206.933594 -16.28125) scale(0.7)"/>
     <use xlink:href="#DejaVuSans-Oblique-63" transform="translate(226.381836 -16.28125) scale(0.7)"/>
     <use xlink:href="#DejaVuSans-Oblique-69" transform="translate(264.868164 -16.28125) scale(0.7)"/>
     <use xlink:href="#DejaVuSans-Oblique-70" transform="translate(284.316406 -16.28125) scale(0.7)"/>
     <use xlink:href="#DejaVuSans-Oblique-61" transform="translate(328.75 -16.28125) scale(0.7)"/>
     <use xlink:href="#DejaVuSans-Oblique-6e" transform="translate(371.645508 -16.28125) scale(0.7)"/>
     <use xlink:href="#DejaVuSans-Oblique-74" transform="translate(416.010742 -16.28125) scale(0.7)"/>
     <use xlink:href="#DejaVuSans-Oblique-73" transform="translate(443.457031 -16.28125) scale(0.7)"/>
     <use xlink:href="#ArialMT-20" transform="translate(482.661133 0.125)"/>
     <use xlink:href="#ArialMT-3d" transform="translate(510.444336 0.125)"/>
     <use xlink:href="#ArialMT-20" transform="translate(568.842773 0.125)"/>
     <use xlink:href="#ArialMT-31" transform="translate(596.625977 0.125)"/>
     <use xlink:href="#ArialMT-39" transform="translate(652.241211 0.125)"/>
     <use xlink:href="#ArialMT-36" transform="translate(707.856445 0.125)"/>
    </g>
   </g>
   <g id="text_31">
    <!-- $n_{participants}$ = 190 -->
    <g style="fill: #1c2529" transform="translate(572.76 148.485562) scale(0.081 -0.081)">
     <use xlink:href="#DejaVuSans-Oblique-6e" transform="translate(0 0.125)"/>
     <use xlink:href="#DejaVuSans-Oblique-70" transform="translate(63.378906 -16.28125) scale(0.7)"/>
     <use xlink:href="#DejaVuSans-Oblique-61" transform="translate(107.8125 -16.28125) scale(0.7)"/>
     <use xlink:href="#DejaVuSans-Oblique-72" transform="translate(150.708008 -16.28125) scale(0.7)"/>
     <use xlink:href="#DejaVuSans-Oblique-74" transform="translate(179.487305 -16.28125) scale(0.7)"/>
     <use xlink:href="#DejaVuSans-Oblique-69" transform="translate(206.933594 -16.28125) scale(0.7)"/>
     <use xlink:href="#DejaVuSans-Oblique-63" transform="translate(226.381836 -16.28125) scale(0.7)"/>
     <use xlink:href="#DejaVuSans-Oblique-69" transform="translate(264.868164 -16.28125) scale(0.7)"/>
     <use xlink:href="#DejaVuSans-Oblique-70" transform="translate(284.316406 -16.28125) scale(0.7)"/>
     <use xlink:href="#DejaVuSans-Oblique-61" transform="translate(328.75 -16.28125) scale(0.7)"/>
     <use xlink:href="#DejaVuSans-Oblique-6e" transform="translate(371.645508 -16.28125) scale(0.7)"/>
     <use xlink:href="#DejaVuSans-Oblique-74" transform="translate(416.010742 -16.28125) scale(0.7)"/>
     <use xlink:href="#DejaVuSans-Oblique-73" transform="translate(443.457031 -16.28125) scale(0.7)"/>
     <use xlink:href="#ArialMT-20" transform="translate(482.661133 0.125)"/>
     <use xlink:href="#ArialMT-3d" transform="translate(510.444336 0.125)"/>
     <use xlink:href="#ArialMT-20" transform="translate(568.842773 0.125)"/>
     <use xlink:href="#ArialMT-31" transform="translate(596.625977 0.125)"/>
     <use xlink:href="#ArialMT-39" transform="translate(652.241211 0.125)"/>
     <use xlink:href="#ArialMT-30" transform="translate(707.856445 0.125)"/>
    </g>
   </g>
   <g id="text_32">
    <!-- $n_{participants}$ = 177 -->
    <g style="fill: #1c2529" transform="translate(572.76 210.214537) scale(0.081 -0.081)">
     <use xlink:href="#DejaVuSans-Oblique-6e" transform="translate(0 0.125)"/>
     <use xlink:href="#DejaVuSans-Oblique-70" transform="translate(63.378906 -16.28125) scale(0.7)"/>
     <use xlink:href="#DejaVuSans-Oblique-61" transform="translate(107.8125 -16.28125) scale(0.7)"/>
     <use xlink:href="#DejaVuSans-Oblique-72" transform="translate(150.708008 -16.28125) scale(0.7)"/>
     <use xlink:href="#DejaVuSans-Oblique-74" transform="translate(179.487305 -16.28125) scale(0.7)"/>
     <use xlink:href="#DejaVuSans-Oblique-69" transform="translate(206.933594 -16.28125) scale(0.7)"/>
     <use xlink:href="#DejaVuSans-Oblique-63" transform="translate(226.381836 -16.28125) scale(0.7)"/>
     <use xlink:href="#DejaVuSans-Oblique-69" transform="translate(264.868164 -16.28125) scale(0.7)"/>
     <use xlink:href="#DejaVuSans-Oblique-70" transform="translate(284.316406 -16.28125) scale(0.7)"/>
     <use xlink:href="#DejaVuSans-Oblique-61" transform="translate(328.75 -16.28125) scale(0.7)"/>
     <use xlink:href="#DejaVuSans-Oblique-6e" transform="translate(371.645508 -16.28125) scale(0.7)"/>
     <use xlink:href="#DejaVuSans-Oblique-74" transform="translate(416.010742 -16.28125) scale(0.7)"/>
     <use xlink:href="#DejaVuSans-Oblique-73" transform="translate(443.457031 -16.28125) scale(0.7)"/>
     <use xlink:href="#ArialMT-20" transform="translate(482.661133 0.125)"/>
     <use xlink:href="#ArialMT-3d" transform="translate(510.444336 0.125)"/>
     <use xlink:href="#ArialMT-20" transform="translate(568.842773 0.125)"/>
     <use xlink:href="#ArialMT-31" transform="translate(596.625977 0.125)"/>
     <use xlink:href="#ArialMT-37" transform="translate(652.241211 0.125)"/>
     <use xlink:href="#ArialMT-37" transform="translate(707.856445 0.125)"/>
    </g>
   </g>
   <g id="patch_54">
    <path d="M 603.702 38.064487 
Q 603.702 55.113442 603.702 70.653052 
" style="fill: none; stroke: #000000; stroke-width: 1.35; stroke-linecap: round"/>
    <path d="M 606.102 65.853052 
L 603.702 70.653052 
L 601.302 65.853052 
z
" style="stroke: #000000; stroke-width: 1.35; stroke-linecap: round"/>
   </g>
   <g id="patch_55">
    <path d="M 603.702 100.381357 
Q 603.702 115.960575 603.702 130.030447 
" style="fill: none; stroke: #000000; stroke-width: 1.35; stroke-linecap: round"/>
    <path d="M 606.102 125.230447 
L 603.702 130.030447 
L 601.302 125.230447 
z
" style="stroke: #000000; stroke-width: 1.35; stroke-linecap: round"/>
   </g>
   <g id="patch_56">
    <path d="M 603.702 162.110332 
Q 603.702 177.68955 603.702 191.759422 
" style="fill: none; stroke: #000000; stroke-width: 1.35; stroke-linecap: round"/>
    <path d="M 606.102 186.959422 
L 603.702 191.759422 
L 601.302 186.959422 
z
" style="stroke: #000000; stroke-width: 1.35; stroke-linecap: round"/>
   </g>
   <g id="text_33">
    <!-- ASL -->
    <g style="fill: #1c2529" transform="translate(594.202 257.166373) scale(0.095 -0.095)">
     <defs>
      <path id="Arial-BoldMT-4c" d="M 491 0 
L 491 4544 
L 1416 4544 
L 1416 772 
L 3716 772 
L 3716 0 
L 491 0 
z
" transform="scale(0.015625)"/>
     </defs>
     <use xlink:href="#Arial-BoldMT-41"/>
     <use xlink:href="#Arial-BoldMT-53" transform="translate(72.216797 0)"/>
     <use xlink:href="#Arial-BoldMT-4c" transform="translate(138.916016 0)"/>
    </g>
   </g>
  </g>
 </g>
 <defs>
  <clipPath id="p7ade48803d">
   <rect x="7.2" y="7.2" width="691.92" height="282.1896"/>
  </clipPath>
 </defs>
</svg>
